<svg width="50" height="50" viewBox="0 0 50 50" fill="none" xmlns="http://www.w3.org/2000/svg">
<path fill-rule="evenodd" clip-rule="evenodd" d="M5 16.2986C5 10.0589 10.058 5 16.2986 5H33.7014C39.9415 5.00044 45 10.0582 45 16.2986V33.7006C45 39.9412 39.9412 45 33.7006 45H16.2994C10.059 45 5 39.9421 5 33.7014V16.2986ZM16.2986 7.26415C11.3085 7.26415 7.26415 11.3092 7.26415 16.2986V33.7014C7.26415 38.6914 11.3092 42.7358 16.2994 42.7358H33.7006C38.6907 42.7358 42.7359 38.6907 42.7359 33.7006V16.2986C42.7359 11.3089 38.6913 7.26459 33.7014 7.26415H16.2986Z" fill="#F4F3F0"/>
<path fill-rule="evenodd" clip-rule="evenodd" d="M25 16.6981C20.415 16.6981 16.6981 20.415 16.6981 25C16.6981 29.585 20.415 33.3019 25 33.3019C29.585 33.3019 33.3019 29.585 33.3019 25C33.3019 20.415 29.585 16.6981 25 16.6981ZM14.434 25C14.434 19.1645 19.1645 14.434 25 14.434C30.8355 14.434 35.566 19.1645 35.566 25C35.566 30.8355 30.8355 35.566 25 35.566C19.1645 35.566 14.434 30.8355 14.434 25Z" fill="#F4F3F0"/>
<path d="M36.3208 15.5673C37.3628 15.5673 38.2075 14.7226 38.2075 13.6805C38.2075 12.6385 37.3628 11.7937 36.3208 11.7937C35.2787 11.7937 34.434 12.6385 34.434 13.6805C34.434 14.7226 35.2787 15.5673 36.3208 15.5673Z" fill="#F4F3F0"/>
</svg>
