<svg width="50" height="50" viewBox="0 0 50 50" fill="none" xmlns="http://www.w3.org/2000/svg">
<path opacity="0.9" d="M37.2713 21.7198C37.4124 21.7149 37.5532 21.7388 37.685 21.7902C37.8169 21.8417 37.9372 21.9195 38.0388 22.0191C38.1404 22.1187 38.2212 22.2381 38.2764 22.3701C38.3316 22.5021 38.36 22.644 38.36 22.7874C38.36 22.9307 38.3316 23.0726 38.2764 23.2046C38.2212 23.3366 38.1404 23.456 38.0388 23.5556C37.9372 23.6552 37.8169 23.7331 37.685 23.7845C37.5532 23.8359 37.4124 23.8599 37.2713 23.8549H34.3475V25.7579H37.2713C37.4133 25.7509 37.5552 25.7732 37.6885 25.8235C37.8218 25.8738 37.9436 25.9511 38.0466 26.0506C38.1496 26.1501 38.2316 26.2698 38.2876 26.4025C38.3436 26.5352 38.3725 26.678 38.3725 26.8223C38.3725 26.9666 38.3436 27.1094 38.2876 27.2421C38.2316 27.3747 38.1496 27.4945 38.0466 27.594C37.9436 27.6935 37.8218 27.7708 37.6885 27.8211C37.5552 27.8714 37.4133 27.8937 37.2713 27.8867H33.3C33.0224 27.8857 32.7565 27.7731 32.5604 27.5737C32.3643 27.3742 32.2541 27.104 32.2538 26.8223V18.7537C32.2538 18.1663 32.7225 17.6842 33.3 17.6842H37.2788C37.5487 17.6984 37.8029 17.8174 37.9887 18.0166C38.1745 18.2158 38.2777 18.4799 38.2769 18.7542C38.2761 19.0285 38.1714 19.292 37.9844 19.49C37.7974 19.6881 37.5425 19.8056 37.2725 19.8181H34.3488V21.7211L37.2713 21.7198ZM30.8538 26.821C30.8514 27.1036 30.7393 27.3738 30.5417 27.5729C30.3442 27.772 30.0772 27.8838 29.7988 27.8841C29.6339 27.8858 29.471 27.8485 29.3228 27.7751C29.1746 27.7018 29.0453 27.5945 28.945 27.4617L24.8762 21.8454V26.8198C24.8762 27.102 24.7658 27.3728 24.5691 27.5724C24.3724 27.772 24.1056 27.8841 23.8275 27.8841C23.5494 27.8841 23.2826 27.772 23.0859 27.5724C22.8892 27.3728 22.7788 27.102 22.7788 26.8198V18.7512C22.7788 18.2957 23.0725 17.8872 23.495 17.7413C23.5993 17.7039 23.7094 17.6854 23.82 17.6868C24.145 17.6868 24.445 17.8656 24.6462 18.1168L28.7475 23.7458V18.7512C28.7475 18.1638 29.2163 17.6817 29.7963 17.6817C30.3763 17.6817 30.8512 18.1638 30.8512 18.7512L30.8538 26.821ZM21.2838 26.821C21.2824 27.104 21.1707 27.3749 20.9729 27.5744C20.7752 27.7739 20.5076 27.8858 20.2288 27.8854C19.952 27.8831 19.6874 27.7699 19.4924 27.5706C19.2974 27.3713 19.1878 27.1019 19.1875 26.821V18.7524C19.1875 18.165 19.6563 17.683 20.2363 17.683C20.815 17.683 21.285 18.165 21.285 18.7524L21.2838 26.821ZM17.175 27.8854H13.1963C12.9177 27.8848 12.6507 27.7726 12.4532 27.5733C12.2556 27.374 12.1436 27.1037 12.1412 26.821V18.7524C12.1412 18.165 12.6163 17.683 13.1963 17.683C13.7763 17.683 14.245 18.165 14.245 18.7524V25.7566H17.175C17.4531 25.7566 17.7199 25.8688 17.9166 26.0684C18.1133 26.268 18.2238 26.5387 18.2238 26.821C18.2238 27.1033 18.1133 27.3741 17.9166 27.5737C17.7199 27.7733 17.4531 27.8854 17.175 27.8854ZM45 22.4784C45 13.3937 36.0213 6 25 6C13.9788 6 5 13.3937 5 22.4784C5 30.6193 12.1163 37.4383 21.725 38.7336C22.3763 38.8719 23.2612 39.17 23.49 39.732C23.6912 40.2395 23.62 41.0261 23.555 41.5627L23.2813 43.2868C23.2025 43.7955 22.8775 45.29 25.0263 44.3778C27.1813 43.4657 36.5563 37.4802 40.755 32.5756C43.6263 29.385 45 26.1068 45 22.4784Z" fill="#F4F3F0"/>
</svg>
