<svg width="24" height="24" viewBox="0 0 24 24" fill="none" xmlns="http://www.w3.org/2000/svg">
<path fill-rule="evenodd" clip-rule="evenodd" d="M6.9141 6.16564C5.94845 6.16564 5.16564 6.94845 5.16564 7.9141V13.14C5.16564 14.1057 5.94845 14.8885 6.9141 14.8885H14.2802L14.9997 16.3275L15.745 17.52C16.0553 18.0166 16.822 17.7967 16.822 17.2111V14.8233L17.113 14.6549C17.6372 14.3517 17.9877 13.7865 17.9877 13.14V7.9141C17.9877 6.94845 17.2049 6.16564 16.2392 6.16564H6.9141ZM4 7.9141C4 6.30469 5.30469 5 6.9141 5H16.2392C17.8486 5 19.1533 6.30469 19.1533 7.9141V13.14C19.1533 14.0941 18.6946 14.9404 17.9877 15.4714V17.2111C17.9877 18.9678 15.6876 19.6275 14.7565 18.1378L13.9819 16.8983L13.5598 16.0541H6.9141C5.30469 16.0541 4 14.7494 4 13.14V7.9141Z" fill="#888170"/>
</svg>
