<svg width="24" height="24" viewBox="0 0 24 24" fill="none" xmlns="http://www.w3.org/2000/svg">
<path fill-rule="evenodd" clip-rule="evenodd" d="M12.3417 5.28333C10.5904 5.28333 9.11748 6.48167 8.70107 8.10402L8.57198 8.60694L8.0532 8.58562C8.01625 8.5841 7.97906 8.58333 7.94167 8.58333C6.47351 8.58333 5.28333 9.77351 5.28333 11.2417C5.28333 12.7098 6.4735 13.9 7.94165 13.9L8.58331 13.9V18.575C8.58331 18.9294 8.87059 19.2167 9.22498 19.2167H15.4583C15.8127 19.2167 16.1 18.9294 16.1 18.575V13.9H16.7416C18.2098 13.9 19.4 12.7098 19.4 11.2417C19.4 9.77351 18.2098 8.58333 16.7417 8.58333C16.7043 8.58333 16.6671 8.5841 16.6301 8.58562L16.1113 8.60695L15.9822 8.10402C15.5658 6.48167 14.0929 5.28333 12.3417 5.28333ZM7.60389 7.31427C8.30906 5.38089 10.1634 4 12.3417 4C14.5199 4 16.3743 5.38089 17.0794 7.31427C19.0982 7.48558 20.6834 9.17851 20.6834 11.2417C20.6834 13.2001 19.2551 14.825 17.3833 15.1314V18.575C17.3833 19.6382 16.5215 20.5 15.4583 20.5H9.22498C8.16183 20.5 7.29998 19.6381 7.29998 18.575V15.1314C5.42826 14.8249 4 13.2001 4 11.2417C4 9.17853 5.58509 7.48561 7.60389 7.31427Z" fill="#888170"/>
<path fill-rule="evenodd" clip-rule="evenodd" d="M11.0583 14.2667C11.4127 14.2667 11.7 14.554 11.7 14.9083V17.475C11.7 17.8294 11.4127 18.1167 11.0583 18.1167C10.704 18.1167 10.4167 17.8294 10.4167 17.475V14.9083C10.4167 14.554 10.704 14.2667 11.0583 14.2667Z" fill="#888170"/>
<path fill-rule="evenodd" clip-rule="evenodd" d="M13.625 14.2667C13.9794 14.2667 14.2667 14.554 14.2667 14.9083V17.475C14.2667 17.8294 13.9794 18.1167 13.625 18.1167C13.2706 18.1167 12.9833 17.8294 12.9833 17.475V14.9083C12.9833 14.554 13.2706 14.2667 13.625 14.2667Z" fill="#888170"/>
</svg>
