<svg width="24" height="24" viewBox="0 0 24 24" fill="none" xmlns="http://www.w3.org/2000/svg">
<path fill-rule="evenodd" clip-rule="evenodd" d="M5.14915 10.2275C5.76468 7.2188 8.51399 5 11.75 5C14.986 5 17.7353 7.2188 18.3508 10.2275C19.5771 10.4826 20.5 11.5926 20.5 12.9232C20.5 14.4424 19.297 15.674 17.813 15.674C17.2507 15.674 16.7285 15.4968 16.2973 15.1947C15.866 15.4968 15.3438 15.674 14.7815 15.674C14.2193 15.674 13.6971 15.4968 13.2658 15.1947C12.8345 15.4968 12.3123 15.674 11.75 15.674C11.1878 15.674 10.6655 15.4968 10.2343 15.1947C9.80297 15.4968 9.28074 15.674 8.71849 15.674C8.15625 15.674 7.63403 15.4968 7.20275 15.1947C6.77147 15.4968 6.24925 15.674 5.68701 15.674C4.20302 15.674 3 14.4424 3 12.9232C3 11.5926 3.9229 10.4826 5.14915 10.2275ZM11.75 6.36364C8.93458 6.36364 6.67512 8.39862 6.38496 10.9339C6.34539 11.2797 6.05765 11.5394 5.71756 11.5364L5.68432 11.5361C4.93722 11.5375 4.33202 12.158 4.33202 12.9232C4.33202 13.6893 4.93867 14.3103 5.68701 14.3103C6.09161 14.3103 6.45416 14.1297 6.70342 13.8406C6.82984 13.6939 7.0117 13.6099 7.20275 13.6099C7.3938 13.6099 7.57565 13.6939 7.70208 13.8406C7.95134 14.1297 8.31389 14.3103 8.71849 14.3103C9.1231 14.3103 9.48566 14.1296 9.73492 13.8405C9.86135 13.6939 10.0432 13.6099 10.2343 13.6099C10.4253 13.6099 10.6072 13.6939 10.7336 13.8405C10.9829 14.1296 11.3454 14.3103 11.75 14.3103C12.1546 14.3103 12.5172 14.1297 12.7664 13.8406C12.8929 13.6939 13.0747 13.6099 13.2658 13.6099C13.4568 13.6099 13.6387 13.6939 13.7651 13.8406C14.0144 14.1297 14.3769 14.3103 14.7815 14.3103C15.1861 14.3103 15.5487 14.1297 15.7979 13.8406C15.9243 13.6939 16.1062 13.6099 16.2973 13.6099C16.4883 13.6099 16.6702 13.6939 16.7966 13.8406C17.0458 14.1297 17.4084 14.3103 17.813 14.3103C18.5613 14.3103 19.168 13.6893 19.168 12.9232C19.168 12.1571 18.5613 11.5361 17.813 11.5361L17.7883 11.5363C17.446 11.5425 17.1549 11.282 17.115 10.9339C16.8249 8.39862 14.5654 6.36364 11.75 6.36364Z" fill="#888170"/>
<path fill-rule="evenodd" clip-rule="evenodd" d="M10.2343 13.6099C10.4188 13.6099 10.5951 13.6882 10.721 13.8263C10.9662 14.0951 11.3321 14.2719 11.75 14.2719C12.1679 14.2719 12.5339 14.0951 12.779 13.8264C12.905 13.6883 13.0812 13.6099 13.2658 13.6099C13.4503 13.6099 13.6266 13.6883 13.7525 13.8264C13.9977 14.0951 14.3636 14.2719 14.7815 14.2719C15.1994 14.2719 15.5653 14.0951 15.8105 13.8263C15.9364 13.6883 16.1127 13.6099 16.2973 13.6099C16.4818 13.6099 16.658 13.6883 16.784 13.8263C16.9574 14.0164 17.1913 14.1605 17.4613 14.2286C17.6634 14.2795 17.8306 14.4243 17.9133 14.6199C18.1619 15.2082 18.252 15.8775 18.134 16.5622L17.833 18.3098C17.6646 19.2873 16.8349 20 15.8653 20H7.63475C6.66512 20 5.83546 19.2873 5.66707 18.3098L5.36603 16.5621C5.24809 15.8775 5.33816 15.2082 5.58683 14.6198C5.66949 14.4243 5.83671 14.2795 6.03881 14.2286C6.30871 14.1605 6.54259 14.0164 6.71599 13.8264C6.84194 13.6883 7.01822 13.6099 7.20275 13.6099C7.38728 13.6099 7.56351 13.6883 7.68946 13.8264C7.93463 14.0951 8.30054 14.2719 8.71844 14.2719C9.13638 14.2719 9.50231 14.0951 9.74748 13.8263C9.87343 13.6882 10.0497 13.6099 10.2343 13.6099ZM10.2342 15.1762C9.80057 15.4673 9.27747 15.6355 8.71844 15.6355C8.15945 15.6355 7.63638 15.4673 7.20273 15.1763C7.05058 15.2784 6.88743 15.3654 6.71558 15.4353C6.64151 15.7144 6.62448 16.0157 6.67781 16.3253L6.97885 18.073C7.03498 18.3988 7.31154 18.6364 7.63475 18.6364H15.8653C16.1885 18.6364 16.4651 18.3988 16.5212 18.073L16.8223 16.3253C16.8756 16.0158 16.8586 15.7144 16.7845 15.4353C16.6126 15.3654 16.4494 15.2784 16.2972 15.1763C15.8636 15.4673 15.3405 15.6355 14.7815 15.6355C14.2225 15.6355 13.6994 15.4673 13.2658 15.1763C12.8321 15.4673 12.309 15.6355 11.75 15.6355C11.191 15.6355 10.6679 15.4673 10.2342 15.1762Z" fill="#888170"/>
</svg>
