<svg width="24" height="24" viewBox="0 0 24 24" fill="none" xmlns="http://www.w3.org/2000/svg">
<path fill-rule="evenodd" clip-rule="evenodd" d="M5.81558 9.7234C5.43676 9.7234 5.15112 10.0676 5.22094 10.4399L6.58221 17.7C6.63586 17.9862 6.88572 18.1936 7.17686 18.1936H16.0586C16.3497 18.1936 16.5996 17.9862 16.6532 17.7L18.0145 10.4399C18.0843 10.0676 17.7987 9.7234 17.4199 9.7234H5.81558ZM4.03164 10.6629C3.8222 9.54591 4.67912 8.51338 5.81558 8.51338H17.4199C18.5563 8.51338 19.4132 9.54591 19.2038 10.6629L17.8425 17.923C17.6816 18.7815 16.932 19.4036 16.0586 19.4036H7.17686C6.30344 19.4036 5.55387 18.7815 5.39291 17.923L4.03164 10.6629Z" fill="#888170"/>
<path fill-rule="evenodd" clip-rule="evenodd" d="M11.6177 12.1434C11.9519 12.1434 12.2227 12.4143 12.2227 12.7485V15.1685C12.2227 15.5026 11.9519 15.7735 11.6177 15.7735C11.2836 15.7735 11.0127 15.5026 11.0127 15.1685V12.7485C11.0127 12.4143 11.2836 12.1434 11.6177 12.1434Z" fill="#888170"/>
<path fill-rule="evenodd" clip-rule="evenodd" d="M7.82284 12.1663C8.14435 12.0753 8.47876 12.2621 8.56979 12.5836L9.30483 15.1798C9.39586 15.5013 9.20902 15.8357 8.88752 15.9268C8.56602 16.0178 8.2316 15.8309 8.14058 15.5094L7.40553 12.9133C7.31451 12.5918 7.50134 12.2574 7.82284 12.1663Z" fill="#888170"/>
<path fill-rule="evenodd" clip-rule="evenodd" d="M15.4126 12.1663C15.0911 12.0753 14.7567 12.2621 14.6657 12.5836L13.9306 15.1798C13.8396 15.5013 14.0264 15.8357 14.3479 15.9268C14.6694 16.0178 15.0038 15.8309 15.0949 15.5094L15.8299 12.9133C15.9209 12.5918 15.7341 12.2574 15.4126 12.1663Z" fill="#888170"/>
<path fill-rule="evenodd" clip-rule="evenodd" d="M6.56407 5.03911C6.8767 4.92116 7.22575 5.07898 7.3437 5.3916L8.62513 8.78797C8.74308 9.1006 8.58526 9.44965 8.27264 9.5676C7.96001 9.68555 7.61096 9.52774 7.49301 9.21511L6.21158 5.81875C6.09363 5.50612 6.25144 5.15707 6.56407 5.03911Z" fill="#888170"/>
<path fill-rule="evenodd" clip-rule="evenodd" d="M16.7428 5.03911C16.4302 4.92116 16.0811 5.07898 15.9632 5.3916L14.6817 8.78797C14.5638 9.1006 14.7216 9.44965 15.0342 9.5676C15.3469 9.68555 15.6959 9.52774 15.8139 9.21511L17.0953 5.81875C17.2132 5.50612 17.0554 5.15707 16.7428 5.03911Z" fill="#888170"/>
</svg>
