<svg width="48" height="47" viewBox="0 0 48 47" fill="none" xmlns="http://www.w3.org/2000/svg">
<g clip-path="url(#clip0_183_575)">
<path d="M30.2369 45.4154C23.3862 46.5657 16.2467 46.4835 10.3452 42.9916C8.11668 41.677 6.25958 39.7462 4.73262 37.6511C-0.426006 30.4208 -1.70535 20.2738 2.58663 12.5094C7.33257 3.96454 17.98 -0.307901 27.7607 0.678046C32.2178 1.12994 36.6336 2.56778 40.1414 5.3613C45.7128 9.79806 48.2302 17.2338 47.9826 24.3408C47.8588 28.1613 46.9508 32.023 45.0525 35.3505C41.9573 40.6911 36.3034 44.3473 30.2369 45.4154Z" fill="#99A868"/>
<path d="M28.8081 14.0385H20.0919C17.2795 14.0385 15 16.3183 15 19.1304V27.8465C15 30.659 17.2799 32.9385 20.0923 32.9385H28.8077C31.6201 32.9385 33.9 30.6586 33.9 27.8461V19.1304C33.9 16.3179 31.6201 14.0385 28.8077 14.0385H28.8081Z" stroke="#F4F3F0" stroke-width="1.5" stroke-miterlimit="10"/>
<path d="M24.4501 28.2134C27.0596 28.2134 29.1751 26.098 29.1751 23.4884C29.1751 20.8789 27.0596 18.7634 24.4501 18.7634C21.8406 18.7634 19.7251 20.8789 19.7251 23.4884C19.7251 26.098 21.8406 28.2134 24.4501 28.2134Z" stroke="#F4F3F0" stroke-width="1.5" stroke-miterlimit="10"/>
</g>
<defs>
<clipPath id="clip0_183_575">
<rect width="48" height="45.5385" fill="white" transform="translate(0 0.538452)"/>
</clipPath>
</defs>
</svg>
