<svg width="48" height="46" viewBox="0 0 48 46" fill="none" xmlns="http://www.w3.org/2000/svg">
<g clip-path="url(#clip0_183_561)">
<path d="M30.2369 44.877C23.3862 46.0272 16.2467 45.9451 10.3452 42.4532C8.11668 41.1386 6.25958 39.2078 4.73262 37.1126C-0.426007 29.8823 -1.70535 19.7353 2.58663 11.971C7.33257 3.42609 17.98 -0.846353 27.7607 0.139594C32.2178 0.591487 36.6336 2.02933 40.1414 4.82285C45.7128 9.25961 48.2302 16.6953 47.9826 23.8023C47.8588 27.6229 46.9508 31.4845 45.0525 34.8121C41.9573 40.1526 36.3034 43.8089 30.2369 44.877" fill="#BACC80"/>
<path d="M30.4424 21.6316C30.5165 21.629 30.5904 21.6414 30.6596 21.668C30.7289 21.6946 30.792 21.7349 30.8454 21.7864C30.8987 21.838 30.9411 21.8997 30.9701 21.968C30.9991 22.0363 31.014 22.1097 31.014 22.1838C31.014 22.258 30.9991 22.3314 30.9701 22.3997C30.9411 22.4679 30.8987 22.5297 30.8454 22.5812C30.792 22.6328 30.7289 22.673 30.6596 22.6996C30.5904 22.7262 30.5165 22.7386 30.4424 22.7361H28.9074V23.7204H30.4424C30.517 23.7168 30.5915 23.7283 30.6615 23.7544C30.7314 23.7804 30.7954 23.8204 30.8495 23.8718C30.9035 23.9233 30.9466 23.9853 30.976 24.0539C31.0054 24.1225 31.0205 24.1964 31.0205 24.271C31.0205 24.3457 31.0054 24.4196 30.976 24.4882C30.9466 24.5568 30.9035 24.6187 30.8495 24.6702C30.7954 24.7217 30.7314 24.7617 30.6615 24.7877C30.5915 24.8137 30.517 24.8253 30.4424 24.8216H28.3575C28.2118 24.8211 28.0721 24.7629 27.9692 24.6597C27.8663 24.5565 27.8084 24.4168 27.8082 24.271V20.0973C27.8082 19.7934 28.0543 19.5441 28.3575 19.5441H30.4463C30.5881 19.5514 30.7215 19.6129 30.8191 19.716C30.9166 19.819 30.9708 19.9556 30.9704 20.0975C30.97 20.2394 30.915 20.3757 30.8168 20.4782C30.7186 20.5806 30.5848 20.6414 30.4431 20.6479H28.9081V21.6323L30.4424 21.6316ZM27.0732 24.2704C27.072 24.4165 27.0131 24.5563 26.9094 24.6593C26.8057 24.7623 26.6655 24.8201 26.5193 24.8203C26.4328 24.8212 26.3472 24.8018 26.2695 24.7639C26.1917 24.726 26.1238 24.6705 26.0711 24.6018L23.935 21.6966V24.2697C23.935 24.4157 23.877 24.5558 23.7738 24.659C23.6705 24.7623 23.5305 24.8203 23.3844 24.8203C23.2384 24.8203 23.0984 24.7623 22.9951 24.659C22.8919 24.5558 22.8338 24.4157 22.8338 24.2697V20.096C22.8338 19.8604 22.9881 19.6491 23.2099 19.5736C23.2647 19.5542 23.3224 19.5447 23.3805 19.5454C23.5511 19.5454 23.7086 19.6379 23.8143 19.7678L25.9674 22.6796V20.096C25.9674 19.7921 26.2135 19.5428 26.518 19.5428C26.8225 19.5428 27.0719 19.7921 27.0719 20.096L27.0732 24.2704ZM22.049 24.2704C22.0483 24.4168 21.9896 24.5569 21.8858 24.6601C21.782 24.7633 21.6415 24.8211 21.4951 24.821C21.3498 24.8198 21.2109 24.7612 21.1085 24.6581C21.0061 24.555 20.9486 24.4157 20.9484 24.2704V20.0966C20.9484 19.7928 21.1945 19.5434 21.499 19.5434C21.8029 19.5434 22.0496 19.7928 22.0496 20.0966L22.049 24.2704ZM19.8919 24.821H17.803C17.6568 24.8206 17.5166 24.7626 17.4129 24.6595C17.3092 24.5564 17.2504 24.4166 17.2492 24.2704V20.0966C17.2492 19.7928 17.4985 19.5434 17.803 19.5434C18.1075 19.5434 18.3536 19.7928 18.3536 20.0966V23.7198H19.8919C20.0379 23.7198 20.1779 23.7778 20.2812 23.881C20.3845 23.9843 20.4425 24.1243 20.4425 24.2704C20.4425 24.4164 20.3845 24.5564 20.2812 24.6597C20.1779 24.763 20.0379 24.821 19.8919 24.821V24.821ZM34.5 22.024C34.5 17.3246 29.7862 13.5 24 13.5C18.2138 13.5 13.5 17.3246 13.5 22.024C13.5 26.2352 17.236 29.7625 22.2806 30.4326C22.6225 30.5041 23.0872 30.6583 23.2072 30.949C23.3129 31.2115 23.2755 31.6184 23.2414 31.896L23.0977 32.7878C23.0563 33.051 22.8857 33.8241 24.0138 33.3522C25.1452 32.8804 30.067 29.7842 32.2714 27.2471C33.7788 25.5967 34.5 23.9009 34.5 22.024Z" fill="#F4F3F0"/>
</g>
<defs>
<clipPath id="clip0_183_561">
<rect width="48" height="45.5385" fill="white"/>
</clipPath>
</defs>
</svg>
