<svg width="1440" height="1400" viewBox="0 0 1440 1400" fill="none" xmlns="http://www.w3.org/2000/svg">
<g clip-path="url(#clip0_266_517)">
<path d="M1440 1371.3C1414.28 1371.3 1414.28 1400.01 1388.56 1400.01C1362.85 1400.01 1362.85 1371.3 1337.13 1371.3C1311.41 1371.3 1311.41 1400.01 1285.69 1400.01C1259.97 1400.01 1259.97 1371.3 1234.26 1371.3C1208.55 1371.3 1208.55 1400.01 1182.84 1400.01C1157.13 1400.01 1157.12 1371.3 1131.41 1371.3C1105.7 1371.3 1105.69 1400.01 1079.98 1400.01C1054.27 1400.01 1054.26 1371.3 1028.55 1371.3C1002.84 1371.3 1002.83 1400.01 977.123 1400.01C951.412 1400.01 951.405 1371.3 925.694 1371.3C899.984 1371.3 899.984 1400.01 874.266 1400.01C848.548 1400.01 848.556 1371.3 822.838 1371.3C797.12 1371.3 797.127 1400.01 771.409 1400.01C745.691 1400.01 745.699 1371.3 719.981 1371.3C694.263 1371.3 694.271 1400.01 668.553 1400.01C642.835 1400.01 642.835 1371.3 617.124 1371.3C591.414 1371.3 591.414 1400.01 565.696 1400.01C539.978 1400.01 539.986 1371.3 514.268 1371.3C488.55 1371.3 488.557 1400.01 462.84 1400.01C437.122 1400.01 437.129 1371.3 411.411 1371.3C385.693 1371.3 385.701 1400.01 359.983 1400.01C334.265 1400.01 334.273 1371.3 308.555 1371.3C282.837 1371.3 282.844 1400.01 257.126 1400.01C231.408 1400.01 231.408 1371.3 205.698 1371.3C179.988 1371.3 179.988 1400.01 154.27 1400.01C128.552 1400.01 128.559 1371.3 102.841 1371.3C77.1235 1371.3 77.1311 1400.01 51.4132 1400.01C25.6952 1400.01 25.7028 1371.3 -0.0151367 1371.3V0H1440V1371.3Z" fill="#DEA068"/>
</g>
<defs>
<clipPath id="clip0_266_517">
<rect width="1440" height="1400" fill="white"/>
</clipPath>
</defs>
</svg>
