<svg width="1440" height="1139" viewBox="0 0 1440 1139" fill="none" xmlns="http://www.w3.org/2000/svg">
<path d="M1440 1115.65C1414.28 1115.65 1414.28 1139.01 1388.56 1139.01C1362.85 1139.01 1362.85 1115.65 1337.13 1115.65C1311.41 1115.65 1311.41 1139.01 1285.69 1139.01C1259.97 1139.01 1259.97 1115.65 1234.26 1115.65C1208.55 1115.65 1208.55 1139.01 1182.84 1139.01C1157.13 1139.01 1157.12 1115.65 1131.41 1115.65C1105.7 1115.65 1105.69 1139.01 1079.98 1139.01C1054.27 1139.01 1054.26 1115.65 1028.55 1115.65C1002.84 1115.65 1002.83 1139.01 977.123 1139.01C951.412 1139.01 951.405 1115.65 925.694 1115.65C899.984 1115.65 899.984 1139.01 874.266 1139.01C848.548 1139.01 848.556 1115.65 822.838 1115.65C797.12 1115.65 797.127 1139.01 771.409 1139.01C745.691 1139.01 745.699 1115.65 719.981 1115.65C694.263 1115.65 694.271 1139.01 668.553 1139.01C642.835 1139.01 642.835 1115.65 617.124 1115.65C591.414 1115.65 591.414 1139.01 565.696 1139.01C539.978 1139.01 539.986 1115.65 514.268 1115.65C488.55 1115.65 488.557 1139.01 462.84 1139.01C437.122 1139.01 437.129 1115.65 411.411 1115.65C385.693 1115.65 385.701 1139.01 359.983 1139.01C334.265 1139.01 334.273 1115.65 308.555 1115.65C282.837 1115.65 282.844 1139.01 257.126 1139.01C231.408 1139.01 231.408 1115.65 205.698 1115.65C179.988 1115.65 179.988 1139.01 154.27 1139.01C128.552 1139.01 128.559 1115.65 102.841 1115.65C77.1236 1115.65 77.1311 1139.01 51.4132 1139.01C25.6952 1139.01 25.7028 1115.65 -0.0151367 1115.65V0H1440V1115.65Z" fill="#DEA068"/>
</svg>
