<svg width="1440" height="700" viewBox="0 0 1440 700" fill="none" xmlns="http://www.w3.org/2000/svg">
<g clip-path="url(#clip0_244_509)">
<path d="M1440 685.65C1414.28 685.65 1414.28 700.004 1388.56 700.004C1362.85 700.004 1362.85 685.65 1337.13 685.65C1311.41 685.65 1311.41 700.004 1285.69 700.004C1259.97 700.004 1259.97 685.65 1234.26 685.65C1208.55 685.65 1208.55 700.004 1182.84 700.004C1157.13 700.004 1157.12 685.65 1131.41 685.65C1105.7 685.65 1105.69 700.004 1079.98 700.004C1054.27 700.004 1054.26 685.65 1028.55 685.65C1002.84 685.65 1002.83 700.004 977.123 700.004C951.412 700.004 951.405 685.65 925.694 685.65C899.984 685.65 899.984 700.004 874.266 700.004C848.548 700.004 848.556 685.65 822.838 685.65C797.12 685.65 797.127 700.004 771.409 700.004C745.691 700.004 745.699 685.65 719.981 685.65C694.263 685.65 694.271 700.004 668.553 700.004C642.835 700.004 642.835 685.65 617.124 685.65C591.414 685.65 591.414 700.004 565.696 700.004C539.978 700.004 539.986 685.65 514.268 685.65C488.55 685.65 488.557 700.004 462.84 700.004C437.122 700.004 437.129 685.65 411.411 685.65C385.693 685.65 385.701 700.004 359.983 700.004C334.265 700.004 334.273 685.65 308.555 685.65C282.837 685.65 282.844 700.004 257.126 700.004C231.408 700.004 231.408 685.65 205.698 685.65C179.988 685.65 179.988 700.004 154.27 700.004C128.552 700.004 128.559 685.65 102.841 685.65C77.1235 685.65 77.1311 700.004 51.4132 700.004C25.6952 700.004 25.7028 685.65 -0.0151367 685.65V0H1440V685.65Z" fill="#DEA068"/>
</g>
<defs>
<clipPath id="clip0_244_509">
<rect width="1440" height="700" fill="white"/>
</clipPath>
</defs>
</svg>
