<svg width="390" height="576" viewBox="0 0 390 576" fill="none" xmlns="http://www.w3.org/2000/svg">
<path d="M0 0L0 576C9.75046 576 9.75046 567.572 19.5009 567.572C29.2514 567.572 29.2514 576 39.0018 576C48.7523 576 48.7523 567.572 58.5028 567.572C68.2532 567.572 68.2532 576 78.0037 576C87.7541 576 87.7541 567.572 97.5029 567.572C107.253 567.572 107.253 576 117.004 576C126.754 576 126.754 567.572 136.505 567.572C146.255 567.572 146.255 576 156.006 576C165.756 576 165.756 567.572 175.507 567.572C185.257 567.572 185.257 576 195.006 576C204.756 576 204.756 567.572 214.505 567.572C224.256 567.572 224.256 576 234.004 576C243.755 576 243.755 567.572 253.504 567.572C263.254 567.572 263.254 576 273.003 576C282.753 576 282.753 567.572 292.502 567.572C302.253 567.572 302.253 576 312.001 576C321.752 576 321.752 567.572 331.502 567.572C341.253 567.572 341.253 576 351.001 576C360.75 576 360.752 567.572 370.501 567.572C380.251 567.572 380.251 576 390 576V0H0Z" fill="#DEA068"/>
</svg>
