<svg width="403" height="107" viewBox="0 0 403 107" fill="none" xmlns="http://www.w3.org/2000/svg">
<path d="M-47 17.6225C-18.8699 2.42006 13.2306 -1.70462 44.0904 2.61648C64.0137 5.40555 85.4613 9.1767 103.523 20.2151C115.027 27.2468 129.19 41.9189 129.881 57.5141C130.732 76.7627 101.946 83.9514 89.804 76.7037C88.1378 75.702 86.5957 74.3271 85.6917 72.5005C84.4864 70.0453 84.5396 67.0009 85.479 64.4082C91.8779 46.8096 117.668 50.3843 129.633 56.6892C143.069 63.7994 154.182 75.2306 167.388 82.8122C200.41 101.746 235.683 105.203 272.144 105.91C316.936 106.755 363.713 101.982 402 76.1931" stroke="white" stroke-width="2" stroke-linecap="round" stroke-linejoin="round"/>
</svg>
