<svg width="140" height="163" viewBox="0 0 140 163" fill="none" xmlns="http://www.w3.org/2000/svg">
<g clip-path="url(#clip0_63_736)">
<path d="M135.372 70.7256C134.494 69.6212 133.559 68.5601 132.601 67.5258C131.223 66.0379 129.843 64.5477 128.385 63.1425C127.254 62.0523 126.257 60.8673 125.283 59.5517C125.733 59.1995 126.171 58.9137 126.54 58.5555C127.386 57.7369 128.244 56.9243 129.012 56.0333C129.973 54.9192 131.007 53.8207 131.721 52.5484C132.647 50.9007 133.505 49.1777 133.899 47.2831C134.06 46.51 134.169 45.725 134.345 44.9556C134.696 43.4258 134.366 41.9267 134.086 40.4507C133.923 39.5925 133.474 38.7821 133.099 37.9762C132.297 36.2539 131.311 34.6756 129.61 33.7071C128.802 33.2466 127.998 32.778 127.152 32.2892C127.287 32.084 127.414 31.899 127.533 31.7102C128.359 30.408 129.301 29.1648 129.981 27.7888C130.848 26.0344 131.336 24.1248 131.124 22.1287C131.002 20.984 130.67 19.8624 130.547 18.7177C130.384 17.2073 129.673 15.9223 128.88 14.7418C127.972 13.3904 126.945 12.1009 125.7 11.0092C124.382 9.85407 122.982 8.88473 121.314 8.34297C120.944 8.22283 120.597 8.03179 120.229 7.9027C119.742 7.73181 119.254 7.51093 118.751 7.45123C117.018 7.24528 115.277 6.97216 113.548 7.49974C112.993 7.66913 112.441 7.85195 111.886 8.02508C111.436 8.16611 110.984 8.30193 110.563 8.43102C110.102 7.63257 109.745 6.92515 109.309 6.27295C107.793 4.00593 105.822 2.25081 103.344 1.16357C101.735 0.456149 100.037 -0.0326259 98.2536 0.00170029C97.3489 0.0188634 96.4316 0.0643829 95.546 0.236014C94.3382 0.471074 93.0739 0.663599 91.9791 1.18894C90.0787 2.10082 88.0938 2.91719 86.4517 4.29024C85.1529 5.37674 83.9378 6.57293 82.741 7.77659C81.801 8.72205 80.9462 9.75407 80.0488 10.7518C79.9109 10.6682 79.8133 10.6361 79.7538 10.5689C78.6657 9.34291 77.587 8.10791 76.4937 6.88634C76.2993 6.66919 76.0439 6.50875 75.8186 6.31847C75.5941 6.12893 75.3593 5.94983 75.1531 5.74164C74.0459 4.62902 72.9489 3.50521 71.8409 2.39334C71.634 2.18589 71.4146 1.96799 71.16 1.83591C68.7825 0.600916 66.4081 0.571814 64.096 1.98665C63.6087 2.28514 63.2155 2.75824 62.817 3.18732C62.0598 4.0022 61.2159 4.76782 60.6194 5.69463C59.9685 6.70576 59.1614 7.54153 58.3564 8.39744C56.8984 9.94884 55.3157 11.3853 54.1248 13.1837C53.9091 13.5098 53.6119 13.7799 53.3507 14.0747C52.6558 14.862 51.9323 15.6246 51.2727 16.441C50.3694 17.5596 49.5167 18.7207 48.6406 19.8616C48.1813 20.4601 47.7242 21.0616 47.2553 21.6526C46.1598 23.0323 45.0422 24.3935 43.9629 25.7866C42.8211 27.2604 41.7219 28.7678 40.5912 30.2498C39.2998 31.9422 37.9768 33.6093 36.6993 35.3122C35.2817 37.2016 33.9007 39.1194 32.5014 41.0223C32.3649 41.2073 32.2101 41.3782 32.0626 41.5551C31.2672 42.508 30.4366 43.4341 29.6823 44.4191C28.126 46.451 26.654 48.5516 25.0647 50.5567C23.4739 52.5641 21.8097 54.514 20.1286 56.4444C18.0433 58.8391 15.9073 61.1882 13.7925 63.5567C13.2283 64.1887 12.6765 64.8335 12.0961 65.4498C10.6594 66.9744 9.18082 68.4594 7.77198 70.01C6.58475 71.3159 5.48556 72.7046 4.32034 74.0321C2.95553 75.5873 1.68538 77.2088 0.730751 79.0632C-0.193796 80.8608 -0.339082 82.6458 0.862095 84.3942C1.02939 84.6382 1.17321 84.8986 1.34345 85.1404C2.11684 86.2411 2.9592 87.297 3.65922 88.4432C5.31826 91.1639 7.71695 93.0996 10.3071 94.7458C12.394 96.0718 14.7765 96.8255 17.1906 97.3799C17.6015 97.4739 18.0227 97.5232 18.4417 97.5747C19.6979 97.7277 20.9549 97.9799 22.2133 97.9896C23.6969 98.0008 25.1931 98.009 26.6702 97.7344C28.713 97.3553 30.7829 97.1038 32.8015 96.624C34.4055 96.2427 35.9707 95.6576 37.5145 95.0599C39.0297 94.4734 40.5508 93.8577 41.9685 93.0682C43.4727 92.2302 44.9674 91.3736 46.4863 90.5609C47.3198 90.1154 48.083 90.0983 48.8138 90.7908C49.2885 91.2408 49.7897 91.6683 50.3144 92.0571C52.5002 93.6787 55.0237 94.5749 57.5522 95.4271C60.2657 96.3412 63.0371 97.0158 65.8695 97.4881C68.3188 97.8963 70.7564 98.0747 73.2226 97.9254C73.803 97.8903 74.3827 97.7732 74.9543 97.653C76.3814 97.3531 77.8284 97.115 79.2211 96.6926C80.9286 96.1748 82.5436 95.386 84.1117 94.5211C84.9364 94.0667 85.759 93.5928 86.5206 93.0399C87.8165 92.0982 89.0345 91.046 90.3399 90.1199C91.2322 89.4871 92.2176 88.9894 93.038 88.5051C93.735 88.9737 94.2487 89.3767 94.8115 89.6886C96.9123 90.8535 99.2236 91.4318 101.5 92.1026C102.371 92.3593 103.243 92.6168 104.125 92.831C104.819 92.9996 105.535 93.0668 106.228 93.2391C109.749 94.1167 113.313 94.3824 116.937 94.3361C119.863 94.298 122.6 93.4854 125.297 92.5623C127.342 91.8624 129.436 91.2236 131.313 90.0371C132.934 89.0125 134.677 88.2066 136.167 86.9433C137.486 85.8247 138.614 84.6039 139.317 82.9928C140.183 81.0086 140.243 78.9736 139.4 77.0245C138.402 74.7187 136.927 72.6822 135.372 70.7271V70.7256ZM83.8064 12.0741C85.0091 10.8704 86.1354 9.58767 87.2926 8.337C88.0359 7.53332 88.9039 6.90649 89.8769 6.42145C91.1566 5.78343 92.4047 5.07228 93.7138 4.50515C95.4785 3.74027 97.3518 3.52611 99.2515 3.78505C100.913 4.0119 102.461 4.59395 103.806 5.64015C106.094 7.42064 107.655 9.63617 107.812 12.6778C107.828 12.974 107.865 13.2725 107.931 13.5606C108.114 14.3732 108.639 14.8873 109.358 14.9933C110.129 15.1067 110.843 14.7478 111.238 14.0299C111.332 13.8598 111.436 13.6658 111.443 13.48C111.5 12.0106 112.552 11.4995 113.687 11.2428C115.107 10.9219 116.587 10.6354 118.023 11.0435C120.06 11.6226 121.981 12.4397 123.549 14.0098C124.721 15.1828 125.769 16.4178 126.495 17.9155C126.705 18.3513 126.829 18.8341 126.964 19.3035C127.072 19.6833 127.109 20.0855 127.227 20.4616C127.551 21.4929 127.498 22.5257 127.402 23.5898C127.306 24.6643 127.153 25.6971 126.556 26.5985C125.78 27.7701 125.001 28.9439 124.141 30.0498C123.621 30.7177 122.928 31.2423 122.344 31.8609C121.531 32.7205 121.441 33.9906 122.094 34.9697C122.519 35.6077 123.147 35.8935 123.867 35.7733C125.401 35.5181 126.7 36.1278 127.895 36.93C128.793 37.5322 129.376 38.4956 129.853 39.4783C130.852 41.5379 131.071 43.6758 130.53 45.9279C130.171 47.4204 129.489 48.7419 128.835 50.103C127.837 52.179 126.251 53.708 124.605 55.2035C124.006 55.7475 123.406 56.2907 122.728 56.9041C122.26 56.3862 121.808 55.9213 121.394 55.4229C120.432 54.2632 119.502 53.076 118.535 51.9216C117.356 50.5149 116.204 49.0785 114.94 47.7524C113.973 46.7376 113.036 45.6921 111.906 44.8213C110.693 43.8863 109.971 42.6431 110.081 40.9148C110.175 39.4462 109.907 37.9545 109.799 36.4725C109.766 36.0114 109.736 35.5502 109.697 35.0898C109.61 34.072 109.523 33.0541 109.428 32.037C109.346 31.149 109.245 30.2632 109.168 29.3752C109.075 28.2902 109.032 27.2007 108.908 26.1195C108.715 24.4352 108.333 22.7861 107.401 21.3563C106.258 19.6005 104.538 18.8102 102.518 18.7028C100.705 18.6065 98.8868 18.4214 97.0781 18.7901C96.7949 18.8475 96.4947 18.8184 96.202 18.8251C94.664 18.8587 93.3102 19.8228 92.7547 21.2996C92.4033 22.2331 92.1883 23.1943 92.1993 24.2039C92.2029 24.5457 92.1376 24.8889 92.1046 25.2315C89.2004 21.1951 85.7869 17.7103 82.7498 13.8717C82.8907 13.1591 83.2737 12.6046 83.8057 12.0726L83.8064 12.0741ZM134.798 83.4256C134.173 84.2322 133.277 84.7464 132.329 85.1456C131.947 85.3068 131.617 85.5948 131.258 85.8165C129.367 86.9821 127.389 87.938 125.294 88.6924C123.482 89.3454 121.649 89.8931 119.779 90.305C118.739 90.5341 117.66 90.6677 116.596 90.6818C113.838 90.7177 111.091 90.5154 108.374 89.9916C107.897 89.8998 107.429 89.755 106.955 89.6498C106.448 89.5379 105.935 89.4603 105.431 89.3386C104.422 89.0961 103.406 88.8715 102.413 88.5715C100.827 88.0932 99.242 87.6029 97.6886 87.0283C97.0326 86.7858 96.3898 86.3978 95.8586 85.9366C94.2259 84.5188 93.0416 84.3031 91.1492 85.3568C89.5577 86.2433 88.0263 87.2306 86.597 88.3887C85.6144 89.1849 84.516 89.8379 83.452 90.5266C82.7718 90.9669 82.0799 91.4004 81.3564 91.7586C80.368 92.2482 79.3737 92.7638 78.3281 93.0884C76.6243 93.6175 74.897 94.0189 73.0949 94.1883C71.4652 94.3413 69.8582 94.2159 68.2586 94.1339C66.6561 94.051 65.0792 93.5406 63.4796 93.2929C61.147 92.9309 58.9581 92.0691 56.7524 91.2982C54.5342 90.5221 52.4533 89.4147 50.7583 87.6992C49.7802 86.7097 48.4851 86.462 47.2523 86.4799C46.3726 86.4925 45.4693 87.0328 44.6321 87.4529C42.2458 88.6499 39.9117 89.9565 37.5116 91.1221C35.5451 92.0773 33.4531 92.6884 31.3178 93.1571C29.8921 93.4705 28.4972 93.907 27.0216 93.9779C25.3127 94.0592 23.6375 94.4137 21.8875 94.2085C20.6041 94.0585 19.2943 94.0689 18.0234 93.7712C17.3014 93.6018 16.5889 93.3817 15.883 93.1511C15.1111 92.8996 14.3062 92.6974 13.5981 92.3153C12.5429 91.7459 11.545 91.0609 10.553 90.3796C9.91092 89.9393 9.29528 89.4491 8.71561 88.926C7.5137 87.8417 6.68747 86.4448 5.75926 85.1344C5.1517 84.2763 4.57349 83.3957 3.96373 82.5391C3.57337 81.9898 3.61079 81.5055 3.9087 80.8914C4.71071 79.2378 5.81356 77.8341 7.04922 76.5059C7.91507 75.5753 8.66791 74.5358 9.51101 73.5814C10.5941 72.3546 11.7204 71.1666 12.8218 69.9563C15.6871 66.8057 18.5863 63.685 21.4017 60.4889C23.7197 57.8578 25.965 55.1587 28.1883 52.4439C29.4959 50.847 30.6846 49.1494 31.9511 47.5166C32.916 46.2727 33.9499 45.084 34.8964 43.8273C36.4586 41.7551 37.9584 39.6343 39.5177 37.5598C40.3036 36.5143 41.1841 35.5428 41.981 34.5063C42.6744 33.6033 43.2959 32.6437 43.9775 31.7303C44.6049 30.8893 45.277 30.0826 45.9169 29.2514C46.7372 28.1865 47.5341 27.103 48.3611 26.0448C49.2284 24.9352 50.1309 23.8539 50.999 22.745C52.0101 21.4548 53.0007 20.1482 54.0001 18.8483C54.16 18.6408 54.309 18.4229 54.4799 18.2252C55.4859 17.0581 56.489 15.8888 57.5082 14.7344C58.7233 13.3576 59.9208 11.9621 61.1873 10.6361C62.263 9.50931 63.0298 8.16686 63.9294 6.91545C64.3675 6.30653 64.8415 5.69836 65.4006 5.20958C66.6297 4.13353 68.3665 4.16562 69.5948 5.25883C70.3763 5.95431 71.1042 6.71322 71.8372 7.46243C73.2798 8.93621 74.7261 10.407 76.1371 11.9114C76.9655 12.7942 77.6714 13.8023 78.5395 14.6388C79.3187 15.3888 80.0628 16.1484 80.729 17.0081C82.0153 18.6669 83.3566 20.2825 84.6855 21.907C85.5557 22.9712 86.4957 23.9793 87.3131 25.083C88.427 26.5873 89.4469 28.1634 90.5204 29.6991C90.8022 30.102 91.1192 30.4819 91.4413 30.8535C91.941 31.4296 92.5852 31.7034 93.3359 31.7475C94.3397 31.8064 94.9626 31.4684 95.3244 30.5005C95.8065 29.2126 95.8204 27.8529 95.7808 26.4903C95.7434 25.2076 95.703 23.9174 96.1418 22.6301C98.5258 22.1809 100.815 22.1667 103.108 22.5719C103.989 22.7279 104.917 23.8547 105.045 25.0464C105.14 25.9247 105.508 26.7791 105.29 27.6865C105.782 29.4193 105.684 31.2244 105.905 32.9907C106.105 34.5936 106.142 36.2181 106.244 37.8337C106.379 40.0067 106.393 42.1946 106.919 44.3235C107.12 45.1384 107.503 45.8003 108.245 46.3152C109.039 46.8659 109.69 47.6315 110.392 48.3166C111.117 49.0247 111.875 49.7053 112.535 50.4724C114.567 52.832 116.519 55.2632 118.581 57.5944C120.012 59.2129 121.198 61.0583 122.885 62.4418C122.91 62.4627 122.937 62.4851 122.952 62.5135C123.749 63.9566 125.102 64.8835 126.169 66.0759C127.261 67.2967 128.458 68.4183 129.587 69.6063C130.443 70.5077 131.391 71.3569 132.069 72.386C132.989 73.7822 134.301 74.8828 134.959 76.4723C135.169 76.9819 135.573 77.4058 135.809 77.9073C136.98 80.3877 136.137 81.7018 134.798 83.4286V83.4256Z" fill="#F4F3F0"/>
<path d="M130.919 92.8688C130.096 92.833 129.419 93.3949 129.294 94.2627C129.242 94.6202 129.262 94.9896 129.264 95.353C129.269 96.1738 129.336 96.9984 129.283 97.8155C129.09 100.812 128.859 103.806 128.642 106.802C128.461 109.305 128.258 111.807 128.105 114.312C127.948 116.88 127.852 119.452 127.707 122.021C127.623 123.52 126.947 124.309 125.555 124.693C125.156 124.803 124.786 125.024 124.402 125.191C124.165 125.294 123.936 125.442 123.689 125.484C122.089 125.754 120.492 126.092 118.88 126.234C116.421 126.45 113.95 126.53 111.484 126.655C111.001 126.68 110.514 126.619 110.031 126.649C108.96 126.715 107.891 126.891 106.821 126.887C103.445 126.876 100.069 126.822 96.6939 126.749C94.9746 126.711 93.2576 126.582 91.5384 126.524C88.7427 126.43 85.9471 126.341 83.1507 126.291C81.9825 126.27 80.8122 126.341 79.644 126.394C77.6328 126.486 75.6215 126.586 73.611 126.702C71.4427 126.826 69.2773 127.017 67.1076 127.098C64.7691 127.185 62.4269 127.191 60.0862 127.203C58.794 127.21 57.5026 127.138 56.2104 127.132C53.5468 127.118 50.8825 127.14 48.2189 127.117C46.5298 127.102 44.8414 127.018 43.153 126.989C41.4052 126.958 39.6559 126.979 37.908 126.934C36.4823 126.897 35.0588 126.776 33.6331 126.731C31.9785 126.679 30.3201 126.713 28.667 126.629C26.335 126.511 24.0068 126.319 21.6771 126.154C20.7393 126.088 19.8001 126.032 18.8653 125.932C16.959 125.728 15.0556 125.498 13.1514 125.275C12.6525 125.217 12.4067 124.925 12.3971 124.412C12.3876 123.917 12.3707 123.421 12.3421 122.927C12.2489 121.315 12.0801 119.704 12.0669 118.093C12.0449 115.356 12.1065 112.618 12.1586 109.882C12.1821 108.628 12.279 107.376 12.3208 106.122C12.3604 104.935 12.3758 103.747 12.3942 102.56C12.4096 101.573 12.3619 100.583 12.4353 99.602C12.5116 98.5714 12.0706 97.8118 11.1908 97.6834C10.2435 97.5446 9.27347 98.1849 9.14506 99.1012C9.05848 99.7191 9.08342 100.353 9.05334 100.98C9.00418 102.002 8.96455 103.024 8.89485 104.044C8.80973 105.29 8.66004 106.534 8.60794 107.781C8.53823 109.429 8.54044 111.08 8.50375 112.729C8.4832 113.647 8.41276 114.563 8.42377 115.479C8.44064 116.899 8.48394 118.32 8.56098 119.737C8.66811 121.713 8.72314 123.7 8.9829 125.656C9.13919 126.835 9.66897 127.992 10.9178 128.426C11.8974 128.765 12.9247 129.015 13.9505 129.152C15.5875 129.372 17.2422 129.46 18.888 129.616C19.4677 129.671 20.0415 129.8 20.6219 129.831C22.6662 129.938 24.7127 130.01 26.7577 130.109C30.3216 130.28 33.884 130.488 37.4494 130.623C39.3932 130.697 41.3413 130.638 43.2873 130.669C44.9104 130.695 46.5335 130.763 48.1566 130.816C49.4216 130.856 50.6859 130.931 51.9509 130.932C53.1528 130.934 54.3547 130.837 55.5566 130.829C56.3674 130.825 57.1797 130.94 57.9905 130.934C60.1669 130.916 62.344 130.872 64.5196 130.821C65.7523 130.792 66.9851 130.744 68.2171 130.678C69.0602 130.632 69.8996 130.515 70.7427 130.472C72.7532 130.369 74.7645 130.287 76.7757 130.208C77.6805 130.173 78.5896 130.212 79.4907 130.137C82.8337 129.855 86.176 130.06 89.5183 130.103C91.2016 130.124 92.8834 130.246 94.5659 130.312C96.5412 130.389 98.5165 130.496 100.493 130.515C102.927 130.539 105.363 130.502 107.797 130.457C108.8 130.438 109.8 130.302 110.802 130.264C113.011 130.181 115.223 130.172 117.429 130.049C119.83 129.915 122.197 129.477 124.557 129.028C124.811 128.979 125.096 128.938 125.299 128.795C126.042 128.272 126.904 128.104 127.741 127.851C127.987 127.776 128.237 127.674 128.448 127.529C130.366 126.203 131.262 124.322 131.339 121.993C131.38 120.772 131.444 119.551 131.518 118.332C131.645 116.223 131.786 114.115 131.927 112.007C132.081 109.701 132.243 107.394 132.4 105.087C132.54 103.044 132.679 101.001 132.817 98.9535C132.673 97.4006 132.541 95.8589 132.381 94.3209C132.29 93.4494 131.715 92.9039 130.921 92.8688H130.919Z" fill="#F4F3F0"/>
<path d="M44.6058 119.069C45.2434 119.299 45.9141 119.434 46.5649 119.63C47.8058 120.002 49.0686 120.031 50.3218 119.782C51.0461 119.639 51.8143 119.466 52.4336 119.088C53.4558 118.464 54.3847 117.679 55.3261 116.927C55.5954 116.711 55.8016 116.395 55.9858 116.092C56.2888 115.594 56.6161 115.132 57.1862 114.677C57.5451 115.873 58.1739 116.743 59.042 117.418C59.5563 117.818 60.0817 118.217 60.6482 118.531C61.7261 119.128 62.7416 119.866 63.9883 120.11C65.6114 120.428 67.1816 120.306 68.8091 119.951C72.1808 119.214 73.9264 116.432 74.5575 113.641C74.9478 111.912 74.8114 110.139 74.6301 108.406C74.4504 106.687 73.9066 105.034 72.7069 103.722C71.7567 102.683 70.8057 101.632 69.752 100.707C67.6608 98.8715 65.1939 98.6357 62.6917 99.514C60.6452 100.232 59.0603 101.67 57.9868 103.627C57.8298 103.913 57.6632 104.193 57.4533 104.559C57.3059 104.363 57.2273 104.294 57.1929 104.208C56.5237 102.541 55.4325 101.214 54.0105 100.164C53.571 99.8393 53.1204 99.4908 52.6215 99.2946C50.7871 98.5722 48.8998 98.5685 46.9656 98.864C45.1194 99.1468 43.6622 100.112 42.5006 101.46C41.7037 102.385 41.2172 103.587 40.5906 104.664C39.1722 107.103 38.765 109.745 39.2192 112.502C39.4261 113.761 39.7299 115.041 40.5591 116.076C41.6465 117.433 42.9724 118.478 44.6065 119.067L44.6058 119.069ZM67.5016 107.631C67.2726 106.151 66.6841 104.949 65.3179 104.217C64.3713 103.71 63.4115 103.285 62.0959 103.283C62.7057 102.753 63.2178 102.444 63.7542 102.326C65.3127 101.983 66.8727 101.9 68.1282 103.173C69.0227 104.08 69.9377 104.984 70.7037 105.999C71.5138 107.072 71.7405 108.416 71.7897 109.739C71.8315 110.853 71.7618 111.979 71.6378 113.087C71.5043 114.281 70.7852 115.208 70.0624 116.108C69.9824 116.208 69.8731 116.289 69.766 116.361C67.5581 117.84 64.2723 117.663 62.1656 115.949C62.1003 115.896 62.0724 115.794 61.9822 115.637C62.2206 115.608 62.3989 115.585 62.578 115.567C64.8776 115.343 66.6746 113.658 67.1229 111.348C67.3614 110.119 67.6997 108.912 67.5016 107.631ZM45.7431 114.473C48.1991 114.301 49.6813 112.997 50.1516 110.515C50.484 108.759 50.1846 107.105 49.5573 105.488C49.1581 104.461 48.4148 103.735 47.4139 103.296C47.0287 103.126 46.6354 102.977 46.1819 102.793C46.5833 102.272 47.0236 101.874 47.6157 101.828C48.5784 101.753 49.5609 101.668 50.5112 101.785C51.8796 101.954 52.9054 102.853 53.6385 103.959C54.3216 104.99 54.8793 106.136 55.3166 107.299C55.7136 108.355 55.6886 109.52 55.3951 110.621C54.9123 112.431 54.1044 114.085 52.6626 115.309C52.0484 115.83 51.3102 116.204 50.6139 116.621C49.6967 117.171 48.6988 116.893 47.7507 116.796C45.9919 116.615 44.4385 115.909 43.1984 114.583C43.1184 114.497 43.0759 114.374 43.012 114.261C43.9513 114.341 44.856 114.535 45.7424 114.473L45.7431 114.473Z" fill="#F4F3F0"/>
<path d="M31.3047 151.892C31.2878 151.631 31.2225 151.368 31.1455 151.117C30.8483 150.143 30.4917 149.188 30.2473 148.202C30.0529 147.419 29.617 146.806 29.077 146.291C28.2559 145.509 27.2294 145.029 26.1316 145.486C25.279 145.84 24.535 146.474 23.7579 147.006C23.5246 147.166 23.3433 147.404 23.0762 147.667C22.8994 147.333 22.7673 147.078 22.6308 146.826C21.7452 145.193 19.706 144.69 18.2004 145.733C17.7256 146.062 17.2531 146.395 16.7438 146.751C16.6506 145.85 16.5919 145.038 16.4782 144.234C16.3241 143.152 15.3409 142.531 14.406 142.913C13.731 143.189 13.4015 143.741 13.3824 144.465C13.3362 146.173 13.3369 147.882 13.265 149.59C13.2012 151.106 13.0588 152.619 12.9627 154.134C12.9165 154.859 12.8255 155.591 12.8798 156.309C12.9635 157.424 13.8388 158.232 14.7913 158.194C15.7525 158.155 16.4224 157.404 16.5149 156.26C16.5259 156.128 16.5266 155.995 16.5281 155.863C16.5516 154.251 16.9515 152.739 17.6941 151.319C18.1417 150.464 18.7426 149.759 19.717 149.211C19.8557 149.899 20.0216 150.494 20.0898 151.101C20.2344 152.382 20.3173 153.671 20.4471 154.954C20.5638 156.108 21.3658 156.788 22.4247 156.665C23.179 156.578 23.7131 156.063 23.9215 155.182C24.2554 153.773 24.4785 152.332 25.2005 151.045C25.5835 150.361 25.9717 149.699 26.8096 149.308C27.1817 150.503 27.6652 151.585 27.7026 152.796C27.7283 153.62 27.7335 154.445 27.7775 155.269C27.8017 155.73 27.8457 156.198 27.9529 156.644C28.1209 157.344 28.578 157.794 29.278 157.955C29.9428 158.108 30.5012 157.886 30.9503 157.388C31.3634 156.93 31.563 156.383 31.527 155.752C31.4522 154.466 31.3891 153.178 31.3054 151.892H31.3047Z" fill="#F4F3F0"/>
<path d="M47.4285 156.573C46.9795 155.709 46.7285 154.815 46.7667 153.821C46.8173 152.5 46.8225 151.177 46.8063 149.855C46.7755 147.449 45.7284 145.571 43.6731 144.428C42.1616 143.588 40.5715 143.87 39.134 144.791C38.4612 145.222 38.2821 146.027 38.583 146.715C38.8875 147.411 39.5559 147.755 40.3477 147.604C40.6669 147.544 40.9773 147.438 41.2964 147.376C41.9135 147.257 42.3641 147.463 42.6473 148.208C42.2474 148.25 41.9069 148.282 41.5672 148.323C41.1497 148.374 40.7065 148.356 40.3213 148.5C38.4171 149.209 37.1441 150.524 36.8139 152.61C36.6862 153.419 36.6686 154.254 36.6847 155.074C36.7155 156.637 37.9938 158.273 39.4921 158.576C40.8657 158.853 42.2658 158.993 43.5447 158.144C43.6474 158.076 43.7803 158.056 43.9116 158.009C44.2594 158.388 44.5676 158.773 44.9264 159.102C45.4995 159.626 46.2736 159.697 46.9215 159.338C47.5687 158.978 47.9106 158.282 47.7705 157.492C47.714 157.175 47.579 156.862 47.4293 156.574L47.4285 156.573ZM43.1147 152.528C43.1147 153.02 43.1147 153.512 43.1147 153.983C42.3164 154.691 41.5041 155.266 40.2295 154.869C40.3367 153.987 40.1092 153.089 40.7278 152.319C41.1695 151.769 42.1175 151.446 42.7354 151.734C42.9151 151.819 43.001 152.122 43.1162 152.333C43.1433 152.382 43.1147 152.462 43.1147 152.528Z" fill="#F4F3F0"/>
<path d="M118.754 146.938C117.544 146.652 116.377 146.823 115.217 147.176C114.953 147.257 114.695 147.356 114.321 147.486C114.288 146.84 114.25 146.321 114.239 145.802C114.227 145.242 114.271 144.679 114.237 144.121C114.175 143.101 114.083 142.083 113.983 141.066C113.923 140.454 113.581 140.035 113.022 139.804C112.182 139.457 111.209 139.89 110.941 140.869C110.753 141.551 110.638 142.336 110.777 143.014C111.004 144.119 110.779 145.183 110.762 146.262C110.74 147.579 110.549 148.894 110.556 150.21C110.565 151.99 110.673 153.771 110.778 155.55C110.807 156.036 110.918 156.537 111.09 156.992C111.404 157.819 112.146 158.244 112.938 158.14C113.752 158.033 114.337 157.456 114.454 156.57C114.504 156.183 114.455 155.781 114.436 155.386C114.384 154.332 114.322 153.277 114.269 152.223C114.265 152.129 114.277 152.023 114.316 151.939C114.667 151.175 116.301 150.403 117.284 150.566C117.336 150.673 117.376 150.729 117.393 150.792C117.856 152.521 118.104 154.273 117.953 156.071C117.881 156.931 118.265 157.609 118.97 157.926C119.667 158.24 120.429 158.061 121.019 157.455C121.509 156.951 121.635 156.349 121.647 155.649C121.687 153.48 121.176 151.389 120.841 149.275C120.652 148.077 119.993 147.232 118.754 146.939V146.938Z" fill="#F4F3F0"/>
<path d="M76.4316 148.357C76.2356 147.924 75.9135 147.463 75.5246 147.224C74.5238 146.609 73.4671 146.051 72.2285 146.19C71.1007 146.316 69.9627 146.409 69.022 147.185C68.8026 147.366 68.5252 147.475 68.3337 147.584C67.9015 147.225 67.5772 146.811 67.156 146.634C66.1375 146.207 65.1293 146.982 65.0134 148.255C64.9415 149.043 64.951 149.84 64.9474 150.633C64.9415 151.889 64.9804 153.145 64.9525 154.401C64.9305 155.392 64.7867 156.38 64.7896 157.37C64.7933 158.448 65.6026 159.147 66.6416 159.079C67.7159 159.009 68.5179 158.088 68.5039 156.931C68.4878 155.642 68.443 154.353 68.457 153.064C68.4614 152.651 68.4826 152.124 68.7204 151.848C69.6119 150.81 70.703 150.036 72.0979 149.86C72.8398 149.767 73.0826 149.92 73.3996 150.606C74.074 152.066 74.3888 153.585 74.2948 155.215C74.2479 156.027 74.3711 156.866 74.5348 157.668C74.7395 158.673 75.5562 159.255 76.4352 159.157C77.3517 159.055 77.9827 158.359 78.0114 157.32C78.04 156.27 78.0825 155.209 77.9754 154.168C77.767 152.155 77.2681 150.201 76.433 148.357H76.4316Z" fill="#F4F3F0"/>
<path d="M103.667 155.533C103.184 155.557 102.681 155.604 102.228 155.761C101.537 156.001 100.866 155.883 100.208 155.739C99.6911 155.626 99.2509 155.3 99.1232 154.715C98.961 153.977 98.8216 153.234 98.6521 152.39C98.8268 151.716 98.9684 150.972 99.2186 150.267C99.4549 149.601 99.7462 149.5 100.439 149.591C100.952 149.659 101.472 149.744 101.986 149.73C102.913 149.706 103.512 149.15 103.594 148.328C103.673 147.535 103.163 146.777 102.309 146.584C101.455 146.392 100.583 146.227 99.7124 146.182C98.2816 146.108 97.1347 146.924 96.4457 148.017C95.7875 149.061 95.3113 150.285 95.221 151.631C95.1374 152.878 95.2907 154.075 95.5343 155.269C95.9467 157.288 97.2367 158.558 99.0733 159.299C99.3382 159.406 99.6405 159.433 99.9289 159.459C100.446 159.505 100.966 159.53 101.485 159.549C102.653 159.589 103.753 159.312 104.724 158.663C105.419 158.198 105.654 157.366 105.416 156.659C105.161 155.903 104.557 155.49 103.667 155.533Z" fill="#F4F3F0"/>
<path d="M57.2405 147.45C56.5412 147.232 55.8449 147.524 55.4215 148.243C55.2725 148.496 55.1155 148.77 55.0678 149.053C54.9467 149.767 54.8279 150.491 54.811 151.213C54.7736 152.827 54.7992 154.442 54.7992 156.057C54.7831 156.057 54.767 156.057 54.7508 156.057C54.7508 156.486 54.7053 156.921 54.7604 157.342C54.8763 158.227 55.4839 158.809 56.2932 158.885C57.1818 158.969 57.8965 158.516 58.135 157.614C58.2678 157.112 58.3045 156.57 58.2949 156.048C58.2656 154.334 58.179 152.622 58.1518 150.908C58.143 150.353 58.2502 149.796 58.3052 149.24C58.3918 148.376 57.9779 147.682 57.239 147.451L57.2405 147.45Z" fill="#F4F3F0"/>
<path d="M131.549 150.059C131.56 150.059 131.57 150.059 131.581 150.059C131.581 149.861 131.584 149.663 131.581 149.465C131.565 148.522 131.068 147.88 130.275 147.776C129.42 147.663 128.712 148.143 128.5 149.089C128.365 149.692 128.349 150.325 128.312 150.947C128.249 151.997 128.213 153.047 128.165 154.096C128.141 154.623 128.085 155.151 128.104 155.676C128.13 156.396 128.634 157.046 129.282 157.213C129.996 157.396 130.668 157.269 131.113 156.636C131.347 156.302 131.538 155.872 131.572 155.47C131.694 153.999 131.822 152.523 131.611 151.046C131.564 150.721 131.569 150.388 131.55 150.06L131.549 150.059Z" fill="#F4F3F0"/>
<path d="M86.413 147.745C85.7453 147.549 85.0386 147.75 84.7231 148.379C84.467 148.892 84.3269 149.49 84.2535 150.066C84.175 150.684 84.2359 151.32 84.2359 151.947C84.2704 151.948 84.3041 151.949 84.3386 151.95C84.255 152.871 84.15 153.79 84.0965 154.713C84.0701 155.164 84.0591 155.647 84.1845 156.071C84.4215 156.871 85.1935 157.329 86.005 157.264C86.8034 157.201 87.4285 156.595 87.5701 155.743C87.5914 155.614 87.5936 155.48 87.5914 155.348C87.5628 153.272 87.5452 151.195 87.4953 149.119C87.4792 148.441 87.033 147.928 86.4123 147.745H86.413Z" fill="#F4F3F0"/>
<path d="M57.4041 142.254C56.5309 142.273 55.4978 143.375 55.4831 144.305C55.4692 145.186 56.2411 145.949 57.1077 145.912C58.0197 145.872 58.967 144.798 58.9538 143.818C58.9421 142.943 58.2421 142.237 57.4041 142.255V142.254Z" fill="#F4F3F0"/>
<path d="M131.186 142.935C130.678 142.539 130.114 142.504 129.546 142.813C128.845 143.194 128.274 144.165 128.35 144.83C128.426 145.499 128.898 146.049 129.555 146.228C129.679 146.262 129.807 146.28 129.868 146.293C131.116 146.285 132.163 144.636 131.667 143.54C131.562 143.31 131.383 143.09 131.185 142.936L131.186 142.935Z" fill="#F4F3F0"/>
<path d="M85.4143 142.993C84.7597 143.248 84.3173 143.931 84.4178 144.637C84.4728 145.023 84.5924 145.417 84.7671 145.764C85.1171 146.459 85.8633 146.748 86.589 146.536C87.2626 146.338 87.6809 145.726 87.7719 144.91C87.5693 144.433 87.4292 143.916 87.1503 143.492C86.7644 142.904 86.0453 142.746 85.4135 142.993L85.4143 142.993Z" fill="#F4F3F0"/>
</g>
<defs>
<clipPath id="clip0_63_736">
<rect width="140" height="159.56" fill="white"/>
</clipPath>
</defs>
</svg>
