<svg width="100" height="112" viewBox="0 0 100 112" fill="none" xmlns="http://www.w3.org/2000/svg">
<g clip-path="url(#clip0_63_497)">
<path d="M96.6943 49.6443C96.067 48.8691 95.3992 48.1242 94.7153 47.3983C93.731 46.3538 92.7451 45.3078 91.7037 44.3215C90.8955 43.5562 90.1837 42.7244 89.4877 41.801C89.8095 41.5537 90.1219 41.3531 90.386 41.1017C90.9898 40.5271 91.603 39.9567 92.1513 39.3313C92.8379 38.5493 93.5764 37.7782 94.0869 36.8852C94.7478 35.7286 95.361 34.5192 95.6424 33.1893C95.7572 32.6466 95.8348 32.0956 95.9611 31.5555C96.2116 30.4818 95.9758 29.4295 95.7756 28.3934C95.6592 27.791 95.3384 27.2222 95.0706 26.6565C94.4983 25.4476 93.7933 24.3397 92.5784 23.6599C92.0014 23.3367 91.4275 23.0077 90.8226 22.6646C90.9191 22.5206 91.0097 22.3907 91.0952 22.2582C91.6853 21.3442 92.3578 20.4715 92.8436 19.5056C93.4632 18.2742 93.8117 16.9338 93.6602 15.5326C93.5732 14.7291 93.3358 13.9419 93.2477 13.1384C93.1314 12.0782 92.6235 11.1762 92.0569 10.3476C91.4086 9.39901 90.6753 8.49389 89.7859 7.72758C88.8446 6.91674 87.8446 6.23633 86.6527 5.85605C86.3886 5.77172 86.1407 5.63763 85.8781 5.54702C85.5301 5.42707 85.1815 5.27202 84.822 5.23012C83.5845 5.08555 82.3408 4.89384 81.106 5.26417C80.7092 5.38307 80.3151 5.5114 79.9188 5.63292C79.597 5.73191 79.2742 5.82725 78.9739 5.91786C78.6447 5.3574 78.3895 4.86084 78.0776 4.40305C76.9953 2.81176 75.5875 1.57979 73.8176 0.816621C72.6676 0.320063 71.4548 -0.0230232 70.1812 0.00107141C69.535 0.0131187 68.8798 0.0450702 68.2472 0.165543C67.3845 0.330539 66.4815 0.465678 65.6995 0.83443C64.342 1.47451 62.9242 2.04754 61.7513 3.01132C60.8236 3.77397 59.9556 4.61361 59.1008 5.45849C58.4294 6.12214 57.8188 6.84655 57.1778 7.54687C57.0793 7.4882 57.0096 7.46568 56.9671 7.41854C56.1898 6.55794 55.4194 5.69106 54.6384 4.83361C54.4995 4.68118 54.3172 4.56857 54.1562 4.435C53.9959 4.30195 53.8281 4.17624 53.6809 4.0301C52.89 3.24913 52.1064 2.46029 51.315 1.67984C51.1672 1.53422 51.0105 1.38127 50.8286 1.28856C49.1305 0.421679 47.4344 0.401251 45.7829 1.39437C45.4349 1.60388 45.154 1.93597 44.8694 2.23715C44.3285 2.80914 43.7257 3.34655 43.2996 3.99711C42.8347 4.70685 42.2582 5.2935 41.6832 5.89429C40.6418 6.98326 39.5113 7.99157 38.6606 9.25391C38.5065 9.48281 38.2943 9.67243 38.1077 9.87933C37.6113 10.4319 37.0946 10.9672 36.6234 11.5403C35.9782 12.3254 35.3692 13.1405 34.7434 13.9414C34.4153 14.3614 34.0887 14.7836 33.7538 15.1985C32.9713 16.167 32.1731 17.1224 31.4021 18.1003C30.5866 19.1348 29.8014 20.1929 28.9938 21.2331C28.0713 22.4211 27.1263 23.5912 26.2138 24.7865C25.2012 26.1128 24.2148 27.4589 23.2153 28.7946C23.1179 28.9245 23.0073 29.0445 22.9019 29.1686C22.3338 29.8375 21.7405 30.4875 21.2017 31.1789C20.09 32.6052 19.0386 34.0797 17.9034 35.4872C16.7671 36.8962 15.5784 38.2648 14.3776 39.6199C12.8881 41.3008 11.3624 42.9497 9.85186 44.6122C9.44881 45.0558 9.05467 45.5084 8.64009 45.9411C7.61387 47.0112 6.55777 48.0535 5.55146 49.142C4.70343 50.0586 3.9183 51.0334 3.08599 51.9652C2.11113 53.0568 1.20388 54.195 0.522 55.4967C-0.138391 56.7585 -0.242167 58.0114 0.615817 59.2386C0.735317 59.4099 0.838044 59.5927 0.95964 59.7624C1.51206 60.535 2.11375 61.2762 2.61376 62.0808C3.7988 63.9905 5.51215 65.3492 7.36229 66.5047C8.85289 67.4355 10.5547 67.9645 12.2791 68.3537C12.5726 68.4197 12.8734 68.4543 13.1727 68.4904C14.07 68.5978 14.9678 68.7749 15.8667 68.7817C16.9264 68.7895 17.9951 68.7953 19.0502 68.6025C20.5093 68.3364 21.9879 68.1599 23.4297 67.8231C24.5754 67.5555 25.6934 67.1448 26.7961 66.7253C27.8784 66.3135 28.9649 65.8814 29.9775 65.3272C31.052 64.739 32.1196 64.1377 33.2045 63.5673C33.7999 63.2546 34.345 63.2425 34.8671 63.7286C35.2062 64.0445 35.5641 64.3446 35.9389 64.6175C37.5002 65.7557 39.3027 66.3848 41.1088 66.983C43.047 67.6246 45.0266 68.0981 47.0497 68.4297C48.7992 68.7162 50.5403 68.8414 52.3019 68.7366C52.7165 68.712 53.1305 68.6298 53.5388 68.5454C54.5582 68.3349 55.5918 68.1678 56.5866 67.8713C57.8062 67.5078 58.9598 66.9542 60.0799 66.3471C60.669 66.0281 61.2565 65.6955 61.8005 65.3073C62.7261 64.6463 63.5962 63.9078 64.5286 63.2577C65.1659 62.8136 65.8698 62.4642 66.4558 62.1242C66.9537 62.4532 67.3206 62.736 67.7226 62.955C69.2231 63.7726 70.8741 64.1786 72.4999 64.6495C73.1221 64.8296 73.7452 65.0103 74.3752 65.1607C74.8705 65.2791 75.3826 65.3262 75.8773 65.4472C78.3921 66.0632 80.9383 66.2496 83.5264 66.2172C85.6165 66.1905 87.5715 65.62 89.4982 64.9721C90.9589 64.4808 92.4542 64.0324 93.7949 63.1996C94.9527 62.4804 96.198 61.9147 97.262 61.0279C98.2043 60.2428 99.0099 59.3858 99.512 58.255C100.13 56.8622 100.174 55.4338 99.5712 54.0656C98.8584 52.4471 97.805 51.0177 96.6943 49.6453V49.6443ZM59.8618 8.47503C60.7208 7.63015 61.5254 6.72974 62.3519 5.85186C62.8828 5.28774 63.5029 4.84775 64.1979 4.50728C65.1119 4.05944 66.0035 3.56026 66.9385 3.16218C68.199 2.62529 69.5371 2.47496 70.894 2.65671C72.0811 2.81595 73.1865 3.22451 74.1472 3.95887C75.7814 5.20864 76.8968 6.76379 77.0089 8.89878C77.0199 9.10673 77.0467 9.31625 77.0933 9.51843C77.2243 10.0888 77.5991 10.4497 78.1132 10.5241C78.6636 10.6037 79.1735 10.3518 79.4555 9.8479C79.5226 9.72847 79.597 9.59229 79.6023 9.46186C79.6426 8.43051 80.3942 8.07171 81.205 7.89152C82.2192 7.66629 83.2764 7.46515 84.3026 7.75167C85.7575 8.15814 87.1297 8.73169 88.2497 9.83376C89.0862 10.6572 89.8352 11.524 90.3535 12.5753C90.504 12.8812 90.5925 13.2201 90.6885 13.5496C90.766 13.8162 90.7922 14.0985 90.8766 14.3625C91.1077 15.0864 91.07 15.8113 91.0019 16.5582C90.9332 17.3125 90.8237 18.0374 90.397 18.6702C89.843 19.4925 89.2864 20.3165 88.6722 21.0927C88.3011 21.5615 87.8058 21.9298 87.3886 22.364C86.8079 22.9674 86.7434 23.8589 87.2099 24.5461C87.5139 24.994 87.9625 25.1946 88.4767 25.1102C89.5721 24.9311 90.4998 25.359 91.3536 25.9221C91.9951 26.3448 92.4118 27.021 92.7519 27.7109C93.4658 29.1566 93.622 30.6572 93.2357 32.238C92.9794 33.2856 92.492 34.2133 92.025 35.1687C91.3122 36.6259 90.1795 37.6991 89.0034 38.7488C88.5757 39.1307 88.147 39.512 87.6632 39.9426C87.3283 39.579 87.006 39.2527 86.7104 38.9028C86.0233 38.0888 85.3587 37.2555 84.6679 36.4452C83.8256 35.4578 83.0028 34.4495 82.1002 33.5187C81.4094 32.8064 80.7401 32.0725 79.933 31.4613C79.0666 30.8049 78.5509 29.9323 78.6295 28.7192C78.6966 27.6884 78.5053 26.6413 78.4282 25.601C78.4041 25.2773 78.3826 24.9536 78.3549 24.6304C78.293 23.916 78.2306 23.2015 78.163 22.4876C78.1043 21.8643 78.032 21.2425 77.9775 20.6192C77.9109 19.8576 77.88 19.0929 77.7914 18.3339C77.6536 17.1517 77.3811 15.9941 76.7154 14.9905C75.8983 13.758 74.6703 13.2033 73.2269 13.1279C71.9323 13.0603 70.6335 12.9304 69.3416 13.1892C69.1393 13.2295 68.9249 13.2091 68.7158 13.2138C67.6172 13.2374 66.6502 13.9141 66.2535 14.9507C66.0024 15.606 65.8488 16.2806 65.8567 16.9893C65.8593 17.2292 65.8127 17.4702 65.7891 17.7106C63.7146 14.8774 61.2764 12.4313 59.1071 9.73685C59.2077 9.23663 59.4813 8.84745 59.8613 8.47398L59.8618 8.47503ZM96.2845 58.5588C95.8379 59.125 95.198 59.4859 94.5208 59.7661C94.2478 59.8792 94.0124 60.0814 93.7556 60.237C92.4049 61.0552 90.9919 61.7262 89.4961 62.2557C88.2015 62.714 86.8923 63.0985 85.5563 63.3876C84.8136 63.5484 84.0426 63.6422 83.2832 63.6521C81.313 63.6773 79.3507 63.5353 77.4104 63.1676C77.0692 63.1032 76.7353 63.0016 76.3962 62.9277C76.0346 62.8492 75.6682 62.7947 75.3082 62.7093C74.587 62.5391 73.8616 62.3814 73.1519 62.1709C72.0193 61.8351 70.8872 61.491 69.7776 61.0876C69.3091 60.9174 68.85 60.645 68.4705 60.3213C67.3043 59.3261 66.4584 59.1747 65.1067 59.9143C63.9699 60.5366 62.876 61.2296 61.855 62.0425C61.1532 62.6014 60.3686 63.0597 59.6087 63.5432C59.1228 63.8522 58.6286 64.1566 58.1118 64.408C57.4058 64.7516 56.6956 65.1135 55.9487 65.3414C54.7317 65.7128 53.4979 65.9946 52.2107 66.1135C51.0466 66.2208 49.8988 66.1328 48.7562 66.0752C47.6116 66.0171 46.4852 65.6588 45.3426 65.4849C43.6765 65.2309 42.113 64.6259 40.5375 64.0848C38.9531 63.5401 37.4667 62.7627 36.256 61.5585C35.5573 60.864 34.6322 60.6901 33.7517 60.7027C33.1233 60.7116 32.4781 61.0908 31.8801 61.3857C30.1757 62.2258 28.5084 63.143 26.794 63.9612C25.3894 64.6316 23.8951 65.0606 22.3699 65.3896C21.3516 65.6096 20.3552 65.916 19.3012 65.9658C18.0805 66.0228 16.884 66.2716 15.634 66.1276C14.7173 66.0223 13.7817 66.0296 12.8739 65.8207C12.3582 65.7018 11.8493 65.5472 11.3451 65.3854C10.7937 65.2089 10.2187 65.0669 9.71297 64.7987C8.95928 64.3991 8.24648 63.9182 7.53787 63.44C7.07927 63.131 6.63953 62.7868 6.22547 62.4197C5.36696 61.6586 4.77681 60.678 4.11379 59.7583C3.67982 59.1559 3.26682 58.5378 2.83127 57.9365C2.55244 57.551 2.57917 57.211 2.79196 56.78C3.36483 55.6192 4.15258 54.634 5.0352 53.7016C5.65366 53.0484 6.19141 52.3188 6.79362 51.6489C7.56722 50.7877 8.37175 49.9538 9.15845 49.1043C11.2051 46.8928 13.2759 44.7023 15.287 42.4589C16.9427 40.612 18.5465 38.7174 20.1346 36.8118C21.0686 35.6909 21.9176 34.4993 22.8223 33.3532C23.5115 32.48 24.25 31.6456 24.9261 30.7636C26.0419 29.309 27.1132 27.8204 28.227 26.3642C28.7883 25.6304 29.4173 24.9484 29.9865 24.2208C30.4817 23.587 30.9257 22.9134 31.4126 22.2723C31.8607 21.682 32.3408 21.1158 32.7978 20.5323C33.3838 19.7848 33.953 19.0243 34.5437 18.2815C35.1632 17.5026 35.8079 16.7437 36.4279 15.9653C37.1501 15.0597 37.8577 14.1425 38.5715 13.23C38.6858 13.0844 38.7922 12.9315 38.9143 12.7927C39.6329 11.9735 40.3493 11.1527 41.0774 10.3424C41.9453 9.37596 42.8007 8.39646 43.7053 7.46568C44.4737 6.67475 45.0214 5.73244 45.6639 4.85403C45.9768 4.42662 46.3154 3.99972 46.7148 3.65664C47.5927 2.90133 48.8333 2.92385 49.7107 3.69121C50.2688 4.17939 50.7888 4.71209 51.3124 5.23798C52.3428 6.27247 53.3758 7.30487 54.3837 8.36084C54.9754 8.98049 55.4796 9.68814 56.0997 10.2753C56.6563 10.8017 57.1878 11.335 57.6637 11.9384C58.5824 13.1028 59.5405 14.2368 60.4897 15.3771C61.1113 16.124 61.7827 16.8317 62.3666 17.6064C63.1622 18.6623 63.8907 19.7686 64.6575 20.8465C64.8588 21.1294 65.0852 21.396 65.3153 21.6569C65.6722 22.0612 66.1324 22.2535 66.6686 22.2844C67.3856 22.3257 67.8305 22.0885 68.0889 21.4091C68.4333 20.505 68.4432 19.5507 68.4149 18.5942C68.3882 17.6938 68.3594 16.7882 68.6728 15.8846C70.3757 15.5693 72.0109 15.5594 73.6488 15.8438C74.2783 15.9533 74.9407 16.7442 75.0325 17.5807C75.1001 18.1972 75.3632 18.7969 75.2075 19.4339C75.5587 20.6501 75.4885 21.9172 75.6462 23.157C75.7893 24.2821 75.816 25.4224 75.8884 26.5564C75.9853 28.0817 75.9948 29.6175 76.3705 31.1119C76.5147 31.6839 76.7877 32.1485 77.3182 32.5099C77.8853 32.8965 78.3501 33.4339 78.8512 33.9147C79.369 34.4118 79.9105 34.8895 80.3822 35.428C81.834 37.0842 83.2281 38.7907 84.7009 40.4271C85.7229 41.5632 86.5704 42.8585 87.7749 43.8296C87.7927 43.8443 87.8121 43.86 87.8231 43.8799C88.3923 44.8929 89.3588 45.5435 90.1208 46.3805C90.9007 47.2374 91.7561 48.0247 92.5622 48.8586C93.1738 49.4913 93.851 50.0874 94.3353 50.8097C94.992 51.7898 95.9297 52.5624 96.3993 53.678C96.5497 54.0358 96.838 54.3333 97.0067 54.6853C97.8432 56.4264 97.2405 57.3488 96.2845 58.5609V58.5588Z" fill="#CA8E58"/>
<path d="M93.5135 65.1874C92.9255 65.1622 92.4422 65.5566 92.3526 66.1658C92.3159 66.4167 92.3301 66.676 92.3316 66.9311C92.3348 67.5072 92.383 68.086 92.3453 68.6596C92.2074 70.7632 92.0418 72.8646 91.8872 74.9671C91.7577 76.7245 91.6131 78.4808 91.5035 80.2391C91.3914 82.0415 91.3227 83.847 91.2195 85.6499C91.1592 86.7022 90.6765 87.2564 89.6822 87.5256C89.3971 87.6032 89.1329 87.7582 88.8583 87.8755C88.6895 87.9478 88.5255 88.0515 88.3494 88.0809C87.2063 88.2705 86.0658 88.5078 84.9143 88.6073C83.158 88.7587 81.3927 88.8152 79.6312 88.9032C79.2863 88.9205 78.9383 88.8776 78.5934 88.8985C77.8287 88.9451 77.0651 89.0682 76.3009 89.0656C73.8894 89.0583 71.478 89.02 69.067 88.9687C67.839 88.9425 66.6126 88.8519 65.3845 88.811C63.3876 88.745 61.3907 88.6827 59.3933 88.6476C58.5589 88.633 57.723 88.6827 56.8886 88.7199C55.4519 88.7843 54.0153 88.8545 52.5792 88.9357C51.0305 89.0232 49.4838 89.1573 47.934 89.2138C46.2636 89.2746 44.5906 89.2793 42.9187 89.2877C41.9957 89.2924 41.0732 89.2421 40.1503 89.2374C38.2477 89.228 36.3446 89.2432 34.4421 89.2269C33.2355 89.2165 32.0295 89.1578 30.8235 89.1374C29.5751 89.1159 28.3256 89.13 27.0771 89.0986C26.0588 89.0729 25.042 88.9881 24.0236 88.9561C22.8417 88.9195 21.6572 88.9436 20.4764 88.8849C18.8107 88.8016 17.1477 88.667 15.4836 88.5512C14.8138 88.5046 14.1429 88.4659 13.4752 88.3957C12.1135 88.2521 10.7539 88.0908 9.39385 87.9342C9.03745 87.8934 8.86186 87.6885 8.85505 87.3287C8.84824 86.9809 8.83618 86.6331 8.81574 86.2858C8.74918 85.1544 8.62863 84.0241 8.6192 82.8927C8.60347 80.9719 8.6475 79.0501 8.68471 77.1294C8.70148 76.2494 8.77067 75.3705 8.80054 74.4905C8.82885 73.6571 8.83985 72.8232 8.85295 71.9899C8.86396 71.2974 8.82989 70.6023 8.88231 69.9136C8.93681 69.1902 8.62182 68.657 7.9934 68.5669C7.31676 68.4695 6.62387 68.9189 6.53215 69.5621C6.47031 69.9958 6.48813 70.441 6.46664 70.881C6.43152 71.5981 6.40322 72.3157 6.35343 73.0317C6.29263 73.9065 6.18571 74.7791 6.1485 75.6549C6.0987 76.8114 6.10028 77.9701 6.07407 79.1282C6.0594 79.7719 6.00908 80.4151 6.01694 81.0583C6.029 82.0551 6.05992 83.0524 6.11495 84.0471C6.19147 85.4341 6.23078 86.8285 6.41632 88.2019C6.52796 89.0295 6.90637 89.8413 7.79842 90.1457C8.49813 90.384 9.23189 90.5595 9.96461 90.6558C11.1339 90.8098 12.3158 90.8716 13.4914 90.9811C13.9055 91.0199 14.3153 91.1105 14.7299 91.132C16.1901 91.2074 17.6519 91.2582 19.1126 91.3274C21.6583 91.4473 24.2029 91.5934 26.7496 91.6882C28.1379 91.7401 29.5295 91.6987 30.9195 91.7202C32.0788 91.7385 33.2382 91.7867 34.3975 91.8234C35.3011 91.8517 36.2042 91.9041 37.1077 91.9051C37.9662 91.9061 38.8248 91.8381 39.6833 91.8328C40.2624 91.8297 40.8426 91.9103 41.4218 91.9061C42.9763 91.8941 44.5314 91.8627 46.0854 91.8271C46.9659 91.8066 47.8464 91.7731 48.7264 91.7265C49.3286 91.6945 49.9282 91.6123 50.5305 91.5819C51.9665 91.5102 53.4032 91.4525 54.8398 91.397C55.486 91.3724 56.1354 91.3996 56.779 91.3467C59.1669 91.1493 61.5543 91.2933 63.9416 91.3232C65.144 91.3378 66.3453 91.4237 67.5471 91.4698C68.958 91.5238 70.3689 91.5987 71.7804 91.6123C73.5194 91.6291 75.259 91.6034 76.998 91.5714C77.7139 91.5583 78.4283 91.463 79.1443 91.4363C80.7219 91.3782 82.3021 91.3714 83.8781 91.2849C85.593 91.1912 87.2833 90.8837 88.9694 90.5684C89.1508 90.5343 89.3541 90.5055 89.4993 90.4049C90.0297 90.0378 90.6456 89.9199 91.2436 89.7424C91.4192 89.69 91.5979 89.6182 91.7483 89.5161C93.1183 88.5853 93.7588 87.2653 93.8139 85.6306C93.8427 84.7736 93.8883 83.9167 93.9412 83.0608C94.0324 81.5806 94.133 80.1008 94.2337 78.6211C94.3437 77.0021 94.459 75.383 94.5717 73.764C94.6713 72.3298 94.7704 70.8957 94.8694 69.4584C94.7662 68.3684 94.6724 67.2862 94.5576 66.2067C94.4926 65.5949 94.0822 65.212 93.5151 65.1874H93.5135Z" fill="#CA8E58"/>
<path d="M31.8612 83.5778C32.3166 83.7397 32.7957 83.8345 33.2606 83.9717C34.1469 84.2331 35.0489 84.253 35.9441 84.0786C36.4614 83.978 37.0101 83.857 37.4525 83.5915C38.1826 83.1536 38.8461 82.6025 39.5186 82.0746C39.7109 81.9232 39.8582 81.7011 39.9897 81.4884C40.2062 81.1385 40.44 80.8143 40.8472 80.4953C41.1035 81.3344 41.5527 81.9457 42.1727 82.4192C42.5401 82.7 42.9154 82.9802 43.32 83.2002C44.0899 83.6197 44.8153 84.1373 45.7058 84.3085C46.8652 84.5317 47.9868 84.4463 49.1493 84.197C51.5576 83.68 52.8045 81.7273 53.2552 79.7678C53.5341 78.5546 53.4366 77.3096 53.3071 76.0933C53.1787 74.887 52.7903 73.7263 51.9334 72.8055C51.2547 72.0763 50.5754 71.3383 49.8228 70.6893C48.329 69.4008 46.5669 69.2353 44.7797 69.8518C43.3179 70.3557 42.1858 71.365 41.419 72.7389C41.3069 72.9396 41.1879 73.136 41.038 73.3932C40.9326 73.2554 40.8766 73.2072 40.8519 73.147C40.3739 71.9768 39.5946 71.045 38.5788 70.308C38.2649 70.0802 37.9431 69.8355 37.5867 69.6978C36.2764 69.1908 34.9283 69.1881 33.5467 69.3956C32.2281 69.5941 31.1872 70.2719 30.3575 71.2178C29.7883 71.8674 29.4408 72.7107 28.9932 73.467C27.9801 75.1788 27.6892 77.033 28.0136 78.9684C28.1614 79.8521 28.3784 80.7504 28.9706 81.4769C29.7474 82.4297 30.6945 83.163 31.8617 83.5768L31.8612 83.5778ZM48.2153 75.5496C48.0518 74.5104 47.6314 73.6666 46.6555 73.1527C45.9794 72.7971 45.2938 72.4985 44.3541 72.4975C44.7896 72.1256 45.1555 71.9087 45.5386 71.826C46.6518 71.585 47.7661 71.5269 48.6629 72.4205C49.3018 73.0569 49.9554 73.6912 50.5025 74.4036C51.0812 75.1568 51.2431 76.1001 51.2782 77.0294C51.3081 77.8109 51.2583 78.6013 51.1698 79.3791C51.0744 80.2172 50.5607 80.8677 50.0445 81.4999C49.9873 81.5701 49.9092 81.6267 49.8327 81.677C48.2556 82.7157 45.9086 82.591 44.4039 81.3879C44.3572 81.3507 44.3373 81.2794 44.2729 81.1689C44.4432 81.149 44.5706 81.1322 44.6984 81.1197C46.341 80.9625 47.6246 79.7798 47.9448 78.1581C48.1152 77.2954 48.3568 76.4485 48.2153 75.5496ZM32.6736 80.3523C34.4278 80.2313 35.4865 79.3157 35.8225 77.5736C36.0599 76.3411 35.8461 75.1798 35.3979 74.0453C35.1128 73.3245 34.5819 72.8149 33.867 72.5064C33.5918 72.3875 33.3109 72.2827 32.987 72.1533C33.2737 71.7877 33.5881 71.5085 34.0111 71.4761C34.6988 71.4237 35.4006 71.364 36.0793 71.4462C37.0568 71.5646 37.7895 72.1958 38.3131 72.972C38.801 73.6959 39.1994 74.4999 39.5118 75.3165C39.7953 76.0577 39.7775 76.8754 39.5678 77.648C39.223 78.9187 38.6459 80.0794 37.616 80.9384C37.1773 81.3046 36.6501 81.567 36.1527 81.8598C35.4975 82.2458 34.7847 82.0505 34.1076 81.9824C32.8512 81.8556 31.7417 81.3601 30.8559 80.4293C30.7988 80.3691 30.7684 80.2826 30.7228 80.203C31.3937 80.2596 32.0399 80.3953 32.673 80.3518L32.6736 80.3523Z" fill="#CA8E58"/>
<path d="M22.3606 106.618C22.3486 106.434 22.3019 106.25 22.2469 106.073C22.0346 105.39 21.7799 104.719 21.6054 104.027C21.4665 103.478 21.1551 103.048 20.7694 102.686C20.1829 102.137 19.4497 101.8 18.6656 102.121C18.0565 102.37 17.5251 102.814 16.97 103.188C16.8034 103.3 16.6739 103.467 16.4831 103.652C16.3568 103.418 16.2625 103.239 16.165 103.061C15.5324 101.915 14.0759 101.562 13.0004 102.295C12.6613 102.526 12.3237 102.759 11.96 103.009C11.8934 102.376 11.8515 101.806 11.7702 101.242C11.6602 100.483 10.9579 100.047 10.2901 100.315C9.80794 100.509 9.57261 100.896 9.55899 101.404C9.52597 102.603 9.52649 103.803 9.47513 105.002C9.42953 106.066 9.32785 107.128 9.25919 108.192C9.22617 108.7 9.16118 109.214 9.19996 109.718C9.25971 110.501 9.88499 111.068 10.5653 111.041C11.2519 111.014 11.7304 110.487 11.7965 109.684C11.8043 109.591 11.8048 109.498 11.8059 109.405C11.8227 108.274 12.1083 107.212 12.6387 106.215C12.9584 105.615 13.3877 105.121 14.0837 104.736C14.1828 105.218 14.3012 105.636 14.35 106.062C14.4532 106.962 14.5124 107.866 14.6052 108.767C14.6885 109.577 15.2614 110.054 16.0177 109.968C16.5565 109.907 16.9381 109.546 17.0869 108.927C17.3254 107.938 17.4847 106.927 18.0005 106.023C18.2741 105.543 18.5513 105.079 19.1499 104.804C19.4156 105.643 19.761 106.402 19.7877 107.252C19.8061 107.831 19.8097 108.41 19.8412 108.988C19.8585 109.311 19.8899 109.64 19.9664 109.953C20.0865 110.444 20.413 110.76 20.913 110.873C21.3878 110.981 21.7867 110.825 22.1075 110.475C22.4025 110.154 22.5451 109.77 22.5194 109.327C22.466 108.424 22.4209 107.52 22.3611 106.618H22.3606Z" fill="#CA8E58"/>
<path d="M33.8775 109.903C33.5567 109.297 33.3775 108.669 33.4047 107.971C33.4409 107.044 33.4445 106.116 33.433 105.188C33.411 103.499 32.6631 102.18 31.195 101.378C30.1153 100.789 28.9796 100.987 27.9528 101.633C27.4722 101.936 27.3443 102.501 27.5592 102.984C27.7767 103.473 28.2542 103.714 28.8197 103.608C29.0477 103.565 29.2694 103.491 29.4974 103.447C29.9382 103.364 30.26 103.509 30.4623 104.032C30.1767 104.061 29.9335 104.084 29.6908 104.113C29.3926 104.148 29.076 104.136 28.8008 104.237C27.4407 104.734 26.5314 105.657 26.2955 107.122C26.2043 107.689 26.1918 108.275 26.2033 108.851C26.2253 109.948 27.1383 111.097 28.2086 111.309C29.1897 111.503 30.1898 111.602 31.1033 111.006C31.1767 110.959 31.2715 110.945 31.3654 110.912C31.6138 111.177 31.8339 111.448 32.0902 111.678C32.4996 112.046 33.0525 112.096 33.5153 111.844C33.9776 111.591 34.2218 111.103 34.1217 110.549C34.0813 110.326 33.9849 110.106 33.878 109.904L33.8775 109.903ZM30.7962 107.064C30.7962 107.409 30.7962 107.755 30.7962 108.086C30.2259 108.582 29.6457 108.986 28.7353 108.707C28.8118 108.088 28.6494 107.458 29.0912 106.918C29.4067 106.532 30.0839 106.304 30.5252 106.507C30.6536 106.566 30.7149 106.779 30.7972 106.927C30.8166 106.962 30.7962 107.018 30.7962 107.064Z" fill="#CA8E58"/>
<path d="M84.8241 103.14C83.9603 102.939 83.1265 103.059 82.2978 103.308C82.1092 103.364 81.9247 103.434 81.6579 103.525C81.6343 103.071 81.607 102.707 81.5992 102.343C81.5908 101.95 81.6222 101.555 81.5981 101.163C81.5536 100.447 81.4875 99.7327 81.4163 99.0188C81.3733 98.5888 81.1291 98.2949 80.7297 98.1325C80.1301 97.8895 79.4351 98.1933 79.2433 98.88C79.1091 99.3593 79.0273 99.9098 79.1264 100.386C79.2883 101.162 79.128 101.909 79.1154 102.666C79.1002 103.59 78.9639 104.513 78.9686 105.437C78.9749 106.687 79.0525 107.937 79.1274 109.185C79.1479 109.527 79.227 109.878 79.3502 110.198C79.574 110.778 80.1044 111.076 80.6699 111.003C81.2512 110.928 81.6694 110.523 81.7528 109.901C81.7889 109.63 81.7538 109.348 81.7402 109.07C81.703 108.33 81.6584 107.59 81.6207 106.85C81.6175 106.784 81.6264 106.71 81.6542 106.65C81.9053 106.114 83.072 105.573 83.7743 105.687C83.8115 105.762 83.8398 105.801 83.8519 105.845C84.1826 107.059 84.3597 108.289 84.2523 109.551C84.2009 110.155 84.475 110.63 84.9787 110.853C85.4761 111.073 86.0207 110.948 86.4421 110.522C86.7922 110.169 86.8818 109.746 86.8907 109.255C86.919 107.732 86.5542 106.264 86.3152 104.781C86.18 103.94 85.7093 103.347 84.8241 103.141V103.14Z" fill="#CA8E58"/>
<path d="M54.5938 104.136C54.4539 103.832 54.2238 103.509 53.946 103.341C53.2311 102.91 52.4764 102.518 51.5916 102.615C50.7861 102.704 49.9732 102.769 49.3012 103.313C49.1445 103.441 48.9464 103.517 48.8096 103.594C48.5009 103.342 48.2692 103.051 47.9684 102.927C47.2409 102.627 46.5208 103.171 46.438 104.065C46.3866 104.618 46.3934 105.177 46.3908 105.734C46.3866 106.615 46.4144 107.497 46.3945 108.378C46.3787 109.074 46.276 109.768 46.2781 110.463C46.2807 111.22 46.8588 111.71 47.601 111.663C48.3683 111.613 48.9412 110.967 48.9312 110.155C48.9197 109.25 48.8877 108.345 48.8977 107.44C48.9008 107.15 48.916 106.78 49.0858 106.587C49.7226 105.858 50.502 105.315 51.4983 105.191C52.0282 105.126 52.2017 105.234 52.4281 105.715C52.9098 106.739 53.1346 107.806 53.0676 108.95C53.034 109.52 53.1221 110.109 53.2389 110.672C53.3852 111.377 53.9685 111.786 54.5964 111.717C55.251 111.645 55.7018 111.157 55.7222 110.428C55.7427 109.691 55.7731 108.946 55.6965 108.216C55.5477 106.802 55.1913 105.431 54.5948 104.136H54.5938Z" fill="#CA8E58"/>
<path d="M74.0481 109.173C73.7027 109.19 73.3437 109.223 73.0198 109.333C72.5261 109.502 72.047 109.419 71.5769 109.318C71.2079 109.239 70.8935 109.01 70.8023 108.599C70.6864 108.081 70.5868 107.559 70.4658 106.967C70.5905 106.494 70.6917 105.972 70.8704 105.477C71.0392 105.009 71.2472 104.938 71.742 105.003C72.1089 105.05 72.48 105.109 72.8474 105.1C73.5093 105.083 73.937 104.693 73.9957 104.116C74.0523 103.559 73.6881 103.027 73.078 102.892C72.4679 102.757 71.8453 102.641 71.2231 102.609C70.2011 102.558 69.3819 103.13 68.8897 103.897C68.4196 104.63 68.0794 105.489 68.015 106.434C67.9552 107.31 68.0648 108.15 68.2388 108.988C68.5333 110.405 69.4547 111.297 70.7666 111.817C70.9558 111.892 71.1718 111.91 71.3777 111.929C71.7472 111.961 72.1188 111.979 72.4894 111.992C73.3233 112.02 74.1089 111.826 74.8029 111.37C75.2992 111.044 75.4674 110.46 75.2971 109.963C75.1147 109.433 74.6834 109.143 74.0481 109.173Z" fill="#CA8E58"/>
<path d="M40.8862 103.5C40.3867 103.346 39.8893 103.552 39.5869 104.056C39.4805 104.234 39.3683 104.426 39.3343 104.625C39.2478 105.126 39.1629 105.634 39.1508 106.141C39.1241 107.274 39.1424 108.408 39.1424 109.541C39.1309 109.541 39.1194 109.541 39.1078 109.541C39.1078 109.842 39.0753 110.147 39.1146 110.443C39.1975 111.065 39.6314 111.473 40.2095 111.526C40.8442 111.585 41.3547 111.267 41.5251 110.634C41.6199 110.282 41.6461 109.901 41.6393 109.534C41.6184 108.332 41.5565 107.13 41.5371 105.927C41.5308 105.537 41.6074 105.146 41.6467 104.756C41.7085 104.15 41.4129 103.662 40.8851 103.5L40.8862 103.5Z" fill="#CA8E58"/>
<path d="M93.9638 105.331C93.9716 105.331 93.9789 105.331 93.9868 105.331C93.9868 105.192 93.9889 105.053 93.9868 104.914C93.9753 104.252 93.6205 103.802 93.0539 103.728C92.4433 103.649 91.9375 103.986 91.786 104.65C91.6896 105.073 91.6781 105.518 91.6513 105.954C91.6068 106.691 91.5806 107.428 91.5465 108.165C91.5297 108.535 91.4894 108.905 91.503 109.274C91.5219 109.779 91.8814 110.235 92.3447 110.352C92.8542 110.48 93.3348 110.391 93.6524 109.947C93.8196 109.713 93.9559 109.411 93.98 109.129C94.0675 108.097 94.1587 107.061 94.0078 106.023C93.9748 105.796 93.9779 105.562 93.9643 105.332L93.9638 105.331Z" fill="#CA8E58"/>
<path d="M61.7236 103.707C61.2466 103.569 60.7419 103.71 60.5165 104.152C60.3336 104.512 60.2335 104.931 60.1811 105.336C60.125 105.769 60.1685 106.216 60.1685 106.656C60.1932 106.657 60.2173 106.658 60.2419 106.658C60.1822 107.305 60.1072 107.95 60.0689 108.597C60.0501 108.914 60.0422 109.253 60.1318 109.551C60.3011 110.112 60.8525 110.434 61.4322 110.388C62.0024 110.344 62.449 109.919 62.5501 109.321C62.5653 109.23 62.5669 109.136 62.5653 109.043C62.5449 107.586 62.5323 106.128 62.4967 104.671C62.4851 104.195 62.1665 103.835 61.7231 103.707H61.7236Z" fill="#CA8E58"/>
<path d="M41.0029 99.8522C40.3792 99.8653 39.6412 100.639 39.6307 101.292C39.6208 101.91 40.1722 102.446 40.7912 102.42C41.4426 102.392 42.1193 101.638 42.1098 100.95C42.1014 100.336 41.6014 99.8401 41.0029 99.8527V99.8522Z" fill="#CA8E58"/>
<path d="M93.7044 100.33C93.3412 100.052 92.9386 100.028 92.533 100.244C92.0319 100.512 91.6247 101.194 91.6786 101.66C91.7332 102.13 92.0702 102.516 92.5393 102.642C92.6278 102.665 92.7195 102.679 92.7631 102.687C93.6541 102.682 94.4025 101.524 94.0477 100.755C93.9732 100.594 93.8454 100.439 93.7038 100.331L93.7044 100.33Z" fill="#CA8E58"/>
<path d="M61.0103 100.371C60.5427 100.55 60.2267 101.029 60.2985 101.525C60.3378 101.796 60.4232 102.072 60.548 102.316C60.798 102.804 61.331 103.007 61.8494 102.858C62.3305 102.719 62.6293 102.289 62.6943 101.716C62.5496 101.382 62.4495 101.019 62.2503 100.721C61.9746 100.308 61.461 100.198 61.0097 100.371L61.0103 100.371Z" fill="#CA8E58"/>
</g>
<defs>
<clipPath id="clip0_63_497">
<rect width="100" height="112" fill="white"/>
</clipPath>
</defs>
</svg>
